<?xml version="1.0" standalone="no"?>
<!DOCTYPE svg PUBLIC "-//W3C//DTD SVG 20010904//EN"
 "http://www.w3.org/TR/2001/REC-SVG-20010904/DTD/svg10.dtd">
<svg version="1.0" xmlns="http://www.w3.org/2000/svg"
 width="180.000000pt" height="180.000000pt" viewBox="0 0 180.000000 180.000000"
 preserveAspectRatio="xMidYMid meet">
<metadata>
Created by potrace 1.15, written by Peter Selinger 2001-2017
</metadata>
<g transform="translate(0.000000,180.000000) scale(0.100000,-0.100000)"
fill="#000000" stroke="none">
<path d="M849 1408 c-17 -24 -34 -43 -39 -43 -5 0 -12 -4 -17 -9 -5 -5 -3 -6
5 -2 6 4 12 4 12 0 0 -13 -42 -74 -57 -83 -13 -7 -6 -24 47 -109 35 -56 72
-104 82 -108 27 -8 42 8 114 116 50 74 61 96 50 102 -15 8 -56 69 -56 82 0 4
6 4 13 0 7 -4 9 -3 4 2 -5 5 -12 9 -17 9 -5 0 -22 19 -39 43 -19 25 -39 42
-51 42 -12 0 -32 -17 -51 -42z"/>
<path d="M502 998 c15 -13 62 -96 140 -246 l37 -73 26 41 c14 22 32 40 40 40
8 0 15 3 15 6 0 9 -119 204 -138 227 -11 13 -30 17 -75 17 -50 0 -58 -2 -45
-12z"/>
</g>
</svg>
