<?xml version="1.0" standalone="no"?>
<!DOCTYPE svg PUBLIC "-//W3C//DTD SVG 20010904//EN"
 "http://www.w3.org/TR/2001/REC-SVG-20010904/DTD/svg10.dtd">
<svg version="1.0" xmlns="http://www.w3.org/2000/svg"
 width="497.000000pt" height="342.000000pt" viewBox="0 0 497.000000 342.000000"
 preserveAspectRatio="xMidYMid meet">

<g transform="translate(0.000000,342.000000) scale(0.100000,-0.100000)"
fill="#000000" stroke="none">
<path d="M22 2168 l3 -1213 795 -2 c486 -2 809 1 831 7 67 18 110 61 183 181
38 63 96 158 129 212 61 101 80 116 132 103 26 -7 68 -68 215 -310 82 -135
114 -166 174 -166 77 0 92 18 291 352 54 90 77 120 99 127 53 20 72 0 203
-214 68 -110 138 -214 157 -232 63 -59 12 -56 1024 -54 l682 1 0 1204 c0 954
-3 1205 -12 1208 -7 2 -377 2 -823 -1 l-810 -6 -45 -32 c-36 -25 -64 -63 -137
-185 -131 -216 -154 -250 -185 -268 -50 -27 -71 -4 -213 229 -104 171 -137
218 -165 233 -42 23 -100 19 -139 -10 -14 -10 -81 -108 -148 -218 -68 -109
-134 -209 -149 -221 -58 -52 -86 -27 -219 194 -131 219 -146 238 -198 266
l-42 22 -818 3 -817 3 2 -1213z m4620 1169 c5 -8 8 -6 8 6 0 9 4 17 9 17 14 0
4 -40 -14 -60 -8 -9 -15 -24 -15 -34 0 -11 -4 -14 -12 -10 -7 5 -9 2 -5 -9 3
-9 1 -17 -4 -19 -5 -2 -16 -21 -24 -43 -8 -22 -14 -32 -15 -22 0 10 6 30 13
45 8 15 14 43 14 62 0 21 -1 26 -4 12 -3 -14 -9 -20 -16 -15 -7 4 -6 0 2 -10
11 -14 11 -21 -4 -43 -10 -15 -15 -38 -13 -55 4 -24 1 -28 -16 -25 -12 2 -15
1 -8 -1 6 -3 12 -13 12 -24 0 -11 -4 -17 -10 -14 -5 3 -10 -2 -10 -12 0 -15
-2 -15 -9 -3 -6 8 -7 18 -5 22 3 4 0 8 -6 8 -7 0 -9 -9 -5 -22 5 -21 5 -21
-10 2 l-16 25 7 -25 c3 -14 11 -30 16 -37 5 -7 6 -18 2 -24 -4 -8 -3 -9 4 -5
8 5 10 2 6 -9 -5 -11 -10 -13 -19 -5 -9 8 -11 4 -8 -15 3 -15 -3 -37 -17 -57
-12 -18 -20 -26 -17 -18 3 11 -2 16 -16 18 -12 0 -17 -2 -11 -6 18 -12 25 -44
13 -58 -6 -8 -15 -12 -19 -9 -5 3 -12 1 -15 -5 -4 -6 -1 -9 7 -8 7 2 13 -4 13
-12 0 -8 -6 -14 -13 -12 -8 1 -11 -2 -8 -7 3 -5 3 -17 -1 -28 -6 -16 -8 -15
-15 7 -6 19 -7 16 -3 -13 2 -22 0 -35 -6 -32 -5 4 -9 -2 -9 -12 0 -10 -5 -25
-11 -33 -8 -12 -9 -9 -5 13 4 17 2 27 -5 27 -7 0 -10 -15 -7 -39 2 -22 0 -37
-4 -35 -5 3 -8 -6 -8 -19 0 -28 -35 -66 -42 -45 -3 7 4 18 16 25 20 11 20 12
-9 23 -23 9 -26 13 -15 20 8 6 24 10 35 11 11 0 14 3 8 6 -8 2 -13 22 -13 44
0 21 -4 39 -10 39 -5 0 -10 -18 -10 -40 0 -22 -3 -40 -7 -40 -5 0 -8 131 -8
292 0 272 -1 291 -18 294 -17 2 -18 -18 -15 -387 1 -214 5 -383 10 -376 4 6 5
21 2 32 -4 16 -3 17 5 5 6 -8 11 -12 11 -8 0 3 3 14 7 24 5 13 3 15 -7 9 -10
-6 -12 -4 -7 8 3 9 1 18 -6 21 -9 3 -9 5 0 5 6 1 15 -4 19 -11 10 -16 13 -68
3 -63 -4 3 -20 -26 -35 -63 -16 -37 -35 -73 -42 -81 -7 -7 -10 -21 -7 -30 5
-14 4 -14 -11 1 -15 15 -16 21 -6 43 7 15 9 31 6 37 -4 7 -2 8 4 4 9 -5 11
101 6 432 -5 417 -2 480 22 441 4 -8 9 -7 15 2 6 11 9 9 9 -7 0 -26 31 -28 38
-2 2 10 11 18 18 18 8 0 14 3 14 8 0 13 324 2 332 -11z m-475 -49 c-3 -7 -5
-2 -5 12 0 14 2 19 5 13 2 -7 2 -19 0 -25z m726 -778 l-1 -55 8 45 7 45 1 -42
c1 -24 7 -43 12 -43 7 0 9 -248 8 -727 l-3 -728 -5 690 -5 690 -3 -675 c-1
-371 -5 -686 -9 -699 -4 -16 -3 -22 5 -17 6 3 13 2 16 -3 3 -5 -1 -12 -9 -15
-9 -3 -18 1 -22 10 -5 13 -7 13 -14 2 -6 -10 -66 -14 -271 -16 -145 -2 -280 0
-301 5 -23 5 65 8 225 7 l263 0 -238 3 c-131 2 -236 7 -233 11 2 4 -26 7 -62
6 -38 0 -48 1 -22 3 l45 4 -3 84 c-3 81 -2 85 17 85 18 0 20 4 15 28 -4 15
-11 34 -15 44 -5 9 -4 29 2 48 8 22 8 35 1 42 -11 11 -5 38 9 38 5 0 9 -14 9
-31 0 -27 2 -30 15 -19 9 7 15 29 15 50 0 26 8 48 25 68 14 17 25 41 25 56 0
15 8 30 20 36 11 6 20 15 20 21 0 6 7 17 15 25 9 9 16 36 16 67 1 29 4 42 6
30 3 -16 11 -23 26 -22 12 0 16 3 10 6 -15 6 -18 63 -3 63 6 0 10 6 10 13 0 8
9 22 20 32 11 10 20 24 20 32 0 7 9 13 20 13 17 0 20 7 20 39 0 22 -6 42 -12
44 -8 4 -6 8 7 12 23 7 50 56 35 65 -5 3 -5 11 0 20 8 13 10 12 10 -2 0 -10 5
-18 10 -18 6 0 10 18 10 40 0 25 5 40 13 41 9 0 9 2 0 5 -15 6 15 44 34 44 17
0 17 17 1 23 -7 3 0 6 16 6 24 1 26 3 16 15 -6 8 -18 12 -26 9 -24 -9 -16 14
11 31 14 9 23 21 20 25 -2 5 4 11 15 14 12 3 20 14 20 25 0 12 5 24 11 28 8 4
7 9 -2 15 -11 6 -11 11 -1 21 6 6 12 31 12 55 0 24 4 43 9 43 5 0 12 10 17 23
6 18 8 15 11 -20 2 -24 8 -43 14 -43 11 0 12 16 0 57 -10 33 4 103 20 103 5 0
6 15 3 33 -5 28 -4 30 7 12 7 -11 12 -44 12 -75z m34 48 c-3 -8 -6 -5 -6 6 -1
11 2 17 5 13 3 -3 4 -12 1 -19z m-755 -240 c-6 -6 -7 0 -4 19 5 21 7 23 10 9
2 -10 0 -22 -6 -28z m-45 -50 c-3 -7 -5 -2 -5 12 0 14 2 19 5 13 2 -7 2 -19 0
-25z m-4 -41 c3 -8 -1 -14 -8 -14 -7 0 -11 6 -8 14 3 7 6 13 8 13 2 0 5 -6 8
-13z m-23 -67 c0 -5 -5 -10 -11 -10 -5 0 -7 5 -4 10 3 6 8 10 11 10 2 0 4 -4
4 -10z m-53 -72 c-3 -8 -6 -5 -6 6 -1 11 2 17 5 13 3 -3 4 -12 1 -19z m193
-898 c0 -5 -4 -10 -10 -10 -5 0 -10 5 -10 10 0 6 5 10 10 10 6 0 10 -4 10 -10z
m-20 -120 c0 -27 -4 -50 -10 -50 -11 0 -14 59 -4 84 10 27 14 18 14 -34z"/>
<path d="M4581 3324 c0 -11 3 -14 6 -6 3 7 2 16 -1 19 -3 4 -6 -2 -5 -13z"/>
<path d="M4621 3324 c0 -11 3 -14 6 -6 3 7 2 16 -1 19 -3 4 -6 -2 -5 -13z"/>
<path d="M4223 3285 c-2 -5 -4 -192 -6 -415 -3 -358 -5 -409 -20 -437 -26 -50
-20 -53 8 -4 l25 43 -3 412 c-1 226 -3 407 -4 401z"/>
<path d="M4495 3170 c-3 -5 -1 -10 4 -10 6 0 11 5 11 10 0 6 -2 10 -4 10 -3 0
-8 -4 -11 -10z"/>
<path d="M4480 3129 c0 -5 5 -7 10 -4 6 3 10 8 10 11 0 2 -4 4 -10 4 -5 0 -10
-5 -10 -11z"/>
<path d="M4401 2894 c0 -11 3 -14 6 -6 3 7 2 16 -1 19 -3 4 -6 -2 -5 -13z"/>
<path d="M4421 2894 c0 -11 3 -14 6 -6 3 7 2 16 -1 19 -3 4 -6 -2 -5 -13z"/>
<path d="M4330 2819 c-5 -43 -4 -45 20 -46 14 0 17 1 8 4 -12 3 -18 17 -20 46
l-3 42 -5 -46z"/>
<path d="M4350 2849 c0 -5 5 -7 10 -4 6 3 10 8 10 11 0 2 -4 4 -10 4 -5 0 -10
-5 -10 -11z"/>
<path d="M4321 2724 c0 -11 3 -14 6 -6 3 7 2 16 -1 19 -3 4 -6 -2 -5 -13z"/>
<path d="M4780 2180 c0 -5 5 -10 10 -10 6 0 10 5 10 10 0 6 -4 10 -10 10 -5 0
-10 -4 -10 -10z"/>
<path d="M4385 1270 c-3 -5 -1 -10 4 -10 6 0 11 5 11 10 0 6 -2 10 -4 10 -3 0
-8 -4 -11 -10z"/>
<path d="M1054 600 c-30 -12 -62 -56 -75 -103 -6 -24 -9 -97 -7 -172 3 -115 6
-134 26 -167 59 -95 181 -64 213 54 17 65 8 295 -14 335 -28 53 -89 75 -143
53z m84 -105 c20 -60 13 -262 -11 -298 -22 -34 -42 -34 -64 0 -27 40 -26 276
0 317 27 40 58 32 75 -19z"/>
<path d="M1948 599 c-15 -6 -36 -25 -48 -43 -44 -72 -50 -292 -10 -384 26 -58
76 -81 134 -61 31 11 45 24 63 59 42 84 40 320 -4 386 -18 28 -63 54 -90 53
-10 0 -30 -5 -45 -10z m83 -91 c19 -46 18 -262 -2 -303 -19 -40 -58 -41 -77
-2 -30 62 -24 284 9 323 21 26 55 17 70 -18z"/>
<path d="M2659 587 c-55 -36 -70 -95 -66 -252 3 -135 12 -169 55 -208 26 -24
92 -26 126 -3 50 32 61 75 61 236 0 166 -12 207 -70 234 -45 22 -66 20 -106
-7z m97 -82 c17 -43 18 -244 1 -295 -10 -30 -17 -35 -42 -35 -26 0 -32 5 -43
40 -17 51 -12 258 8 298 20 40 57 37 76 -8z"/>
<path d="M3860 603 c-32 -12 -61 -49 -75 -97 -18 -58 -20 -222 -4 -294 14 -68
55 -107 114 -107 52 0 80 22 107 82 28 63 27 284 -1 348 -26 60 -85 88 -141
68z m76 -98 c17 -43 18 -244 1 -295 -16 -46 -49 -52 -74 -14 -26 41 -27 277 0
317 25 38 55 35 73 -8z"/>
<path d="M4753 591 c-40 -25 -53 -49 -53 -101 0 -53 10 -72 81 -146 82 -87 99
-147 50 -174 -28 -15 -49 -3 -63 36 -11 31 -16 34 -38 29 -40 -10 -45 -21 -27
-60 36 -76 129 -96 188 -39 33 32 43 69 34 125 -5 31 -22 57 -76 114 -70 76
-90 116 -72 144 21 34 73 20 73 -20 0 -22 8 -23 45 -9 23 9 26 14 20 38 -16
68 -101 101 -162 63z"/>
<path d="M190 593 c0 -9 -85 -416 -96 -458 -6 -23 -4 -25 29 -25 34 0 35 2 43
48 l9 47 52 3 52 3 6 -38 c10 -60 12 -63 50 -63 36 0 36 1 30 33 -6 30 -47
212 -85 377 l-17 75 -36 3 c-21 2 -37 0 -37 -5z m59 -220 c16 -104 16 -103
-25 -103 -32 0 -36 2 -31 23 3 12 11 55 18 95 7 40 15 69 19 65 4 -4 12 -40
19 -80z"/>
<path d="M422 380 l3 -220 28 -27 c23 -24 36 -28 82 -28 46 0 59 4 82 28 l28
27 3 220 3 220 -35 0 -36 0 0 -196 c0 -115 -4 -203 -10 -215 -14 -25 -56 -25
-70 0 -6 12 -10 100 -10 215 l0 196 -36 0 -35 0 3 -220z"/>
<path d="M710 565 c0 -34 1 -35 40 -35 l40 0 0 -210 0 -210 35 0 35 0 0 209 0
210 43 3 c39 3 42 5 45 36 l3 32 -120 0 -121 0 0 -35z"/>
<path d="M1458 590 c-1 -5 -2 -116 0 -245 l3 -235 29 0 29 0 3 155 3 155 36
-127 c34 -118 38 -128 62 -131 27 -3 27 -4 79 173 l23 80 5 -150 5 -150 30 0
30 0 2 229 c1 126 -1 235 -4 242 -3 8 -19 14 -38 14 l-32 0 -43 -142 c-24 -79
-46 -149 -50 -157 -5 -10 -19 22 -40 90 -70 232 -60 209 -96 209 -18 0 -34 -4
-36 -10z"/>
<path d="M2142 568 c3 -31 5 -33 40 -32 l38 2 2 -212 3 -211 32 -3 33 -3 2
213 3 213 40 0 c38 0 40 2 43 33 l3 32 -121 0 -121 0 3 -32z"/>
<path d="M2444 587 c-2 -7 -3 -116 -2 -242 l3 -230 33 -3 32 -3 0 245 0 246
-30 0 c-17 0 -33 -6 -36 -13z"/>
<path d="M2910 354 l0 -245 31 3 31 3 -1 138 c-1 75 2 137 6 137 5 0 29 -62
53 -137 45 -138 45 -138 78 -141 l32 -3 0 245 0 246 -30 0 -30 0 0 -142 c0
-85 -4 -138 -9 -133 -5 6 -28 70 -50 143 l-42 132 -34 0 -35 0 0 -246z"/>
<path d="M3340 581 c0 -10 9 -72 21 -137 11 -66 28 -166 37 -224 l17 -105 35
0 35 0 22 150 c12 83 22 155 23 160 1 8 47 -278 49 -307 1 -13 61 -9 66 5 3 6
21 106 40 222 20 116 39 220 42 233 5 20 1 22 -30 22 -19 0 -37 -6 -40 -12 -2
-7 -12 -77 -22 -155 -10 -78 -22 -140 -25 -138 -4 2 -10 37 -14 77 -3 40 -11
108 -17 151 l-11 78 -37 -3 -36 -3 -20 -150 c-23 -166 -24 -166 -51 28 l-17
127 -34 0 c-26 0 -33 -4 -33 -19z"/>
<path d="M4094 587 c-2 -7 -3 -116 -2 -242 l3 -230 35 0 35 0 5 110 5 110 46
-110 45 -110 37 -3 c20 -2 37 1 37 7 0 6 -20 56 -44 113 l-45 103 29 25 c75
65 62 189 -25 226 -44 18 -154 19 -161 1z m121 -57 c57 -22 52 -109 -7 -129
-17 -6 -33 -11 -34 -11 -2 0 -4 34 -4 75 0 41 4 75 9 75 5 0 21 -4 36 -10z"/>
<path d="M4400 355 l0 -245 35 0 34 0 3 115 3 116 52 -113 c51 -111 53 -113
87 -116 21 -2 36 1 36 8 0 6 -25 63 -55 126 -30 64 -55 120 -55 125 0 5 25 59
55 119 l55 110 -38 0 -39 0 -51 -107 -51 -108 0 108 -1 107 -35 0 -35 0 0
-245z"/>
</g>
</svg>
