<?xml version="1.0" standalone="no"?>
<!DOCTYPE svg PUBLIC "-//W3C//DTD SVG 20010904//EN"
 "http://www.w3.org/TR/2001/REC-SVG-20010904/DTD/svg10.dtd">
<svg version="1.0" xmlns="http://www.w3.org/2000/svg"
 width="376.000000pt" height="376.000000pt" viewBox="0 0 376.000000 376.000000"
 preserveAspectRatio="xMidYMid meet">

<g transform="translate(0.000000,376.000000) scale(0.100000,-0.100000)"
fill="#000000" stroke="none">
<path d="M3232 2230 c-12 -5 -32 -25 -43 -45 -12 -19 -26 -35 -33 -35 -16 0
-52 -39 -60 -66 -4 -12 -2 -33 3 -47 7 -18 7 -36 0 -57 -15 -43 5 -88 47 -106
20 -8 34 -23 38 -38 8 -32 57 -59 91 -50 23 6 25 4 25 -30 0 -34 -1 -35 -26
-26 -52 20 -194 5 -194 -20 0 -25 142 -40 194 -20 l25 9 3 -82 c2 -65 6 -82
18 -82 11 0 16 15 18 63 3 55 5 63 20 57 58 -23 194 -9 194 20 0 29 -136 43
-194 20 -16 -6 -18 -1 -18 43 0 45 2 50 20 45 33 -9 77 16 95 53 9 19 22 34
30 34 8 0 24 9 34 19 17 17 20 34 20 120 0 96 -1 101 -26 121 -14 11 -32 20
-39 20 -8 0 -14 6 -14 14 0 7 -9 25 -21 40 -19 24 -26 26 -82 24 -34 -1 -71 1
-82 4 -11 4 -30 2 -43 -2z m158 -129 c31 -23 54 -82 46 -116 -4 -14 -19 -40
-35 -58 -26 -28 -36 -32 -80 -32 -41 0 -55 5 -80 29 -40 39 -49 84 -25 133 34
69 113 89 174 44z"/>
<path d="M3267 2089 c-11 -6 -25 -26 -33 -45 -12 -29 -12 -39 -1 -66 19 -46
43 -63 89 -63 53 0 88 38 88 96 0 54 -34 89 -87 89 -21 0 -46 -5 -56 -11z"/>
<path d="M190 2190 c0 -29 2 -30 45 -30 l45 0 0 -125 0 -125 35 0 35 0 0 125
0 125 45 0 c43 0 45 1 45 30 l0 30 -125 0 -125 0 0 -30z"/>
<path d="M480 2065 l0 -155 35 0 35 0 0 65 0 65 60 0 60 0 0 -65 0 -65 35 0
35 0 0 155 0 155 -35 0 -35 0 0 -60 0 -60 -60 0 -60 0 0 60 0 60 -35 0 -35 0
0 -155z"/>
<path d="M880 2198 c-6 -13 -32 -81 -59 -153 l-50 -130 26 -3 c37 -5 50 3 58
37 6 30 8 31 64 31 57 0 58 -1 67 -32 9 -29 14 -33 48 -36 29 -3 37 0 34 10
-3 7 -29 77 -58 156 l-53 142 -34 0 c-25 0 -36 -6 -43 -22z m63 -120 l16 -48
-39 0 -39 0 13 33 c7 17 16 41 20 51 8 24 9 22 29 -36z"/>
<path d="M1100 2066 l0 -156 35 0 34 0 3 95 3 96 59 -96 c56 -89 61 -95 92
-95 l34 0 0 155 0 155 -30 0 -29 0 -3 -102 -3 -102 -61 99 c-57 95 -62 100
-97 103 l-37 3 0 -155z"/>
<path d="M1400 2190 c0 -29 2 -30 45 -30 l45 0 0 -125 0 -125 35 0 35 0 0 125
0 125 45 0 c43 0 45 1 45 30 l0 30 -125 0 -125 0 0 -30z"/>
<path d="M1770 2198 c-6 -13 -32 -81 -59 -153 l-50 -130 26 -3 c37 -5 50 3 58
37 6 30 8 31 64 31 57 0 58 -1 67 -32 9 -29 14 -33 48 -36 29 -3 37 0 34 10
-3 7 -29 77 -58 156 l-53 142 -34 0 c-25 0 -36 -6 -43 -22z m63 -120 l16 -48
-39 0 -39 0 13 33 c7 17 16 41 20 51 8 24 9 22 29 -36z"/>
<path d="M1970 2209 c0 -6 17 -76 37 -155 l37 -144 36 0 36 0 25 103 25 102
25 -100 25 -100 35 -3 35 -3 40 153 41 153 -30 3 c-37 4 -41 -2 -63 -105 -9
-45 -20 -83 -24 -83 -3 0 -16 43 -29 95 l-23 95 -32 0 -33 0 -23 -95 c-13 -52
-27 -92 -30 -89 -3 3 -14 44 -25 92 -20 86 -21 87 -53 90 -20 2 -32 -1 -32 -9z"/>
<path d="M2485 2211 c-3 -5 -27 -67 -54 -138 -27 -70 -52 -136 -56 -146 -7
-16 -3 -18 31 -15 34 3 39 7 48 36 9 31 10 32 66 32 56 0 57 -1 66 -32 9 -29
14 -33 48 -36 29 -3 37 0 34 10 -3 7 -29 77 -58 156 l-53 142 -33 0 c-18 0
-35 -4 -39 -9z m58 -133 l16 -48 -39 0 -39 0 13 33 c7 17 16 41 20 51 8 24 9
22 29 -36z"/>
<path d="M2700 2065 l0 -155 35 0 34 0 3 95 3 96 59 -96 c56 -89 61 -95 92
-95 l34 0 0 155 0 155 -30 0 -29 0 -3 -101 -3 -102 -63 102 c-60 96 -65 101
-98 101 l-34 0 0 -155z"/>
<path d="M280 1665 l0 -125 30 0 30 0 0 125 0 125 -30 0 -30 0 0 -125z"/>
<path d="M390 1665 l0 -125 25 0 c23 0 24 3 27 78 l3 77 49 -77 c42 -68 52
-78 77 -78 l29 0 0 125 0 125 -25 0 c-23 0 -24 -2 -27 -82 l-3 -82 -50 82
c-43 71 -54 82 -77 82 l-28 0 0 -125z"/>
<path d="M650 1665 l0 -125 79 0 c64 0 83 4 104 21 35 27 51 87 37 139 -19 69
-54 90 -156 90 l-64 0 0 -125z m143 62 c26 -18 33 -81 13 -112 -13 -20 -25
-25 -56 -25 l-40 0 0 75 0 75 33 0 c18 0 41 -6 50 -13z"/>
<path d="M920 1687 c0 -89 3 -106 20 -125 40 -43 134 -40 170 5 17 22 20 41
20 124 l0 99 -30 0 -30 0 0 -93 c0 -99 -7 -117 -46 -117 -43 0 -54 24 -54 121
0 88 0 89 -25 89 l-25 0 0 -103z"/>
<path d="M1209 1780 c-9 -5 -22 -23 -29 -40 -18 -45 5 -74 77 -97 45 -14 58
-22 58 -38 0 -30 -69 -34 -87 -6 -8 13 -23 21 -40 21 -26 0 -27 -1 -16 -31 22
-63 139 -78 185 -24 44 51 18 98 -68 124 -55 17 -77 45 -45 57 24 9 66 -4 66
-21 0 -10 10 -15 30 -15 37 0 40 21 5 55 -19 20 -34 25 -72 25 -26 0 -55 -5
-64 -10z"/>
<path d="M1390 1765 c0 -22 4 -25 40 -25 l40 0 0 -100 0 -100 30 0 30 0 0 100
0 100 35 0 c31 0 35 3 35 25 l0 25 -105 0 -105 0 0 -25z"/>
<path d="M1630 1665 l0 -125 30 0 c29 0 30 2 30 46 l0 45 42 -3 c41 -3 43 -4
51 -45 7 -37 12 -43 33 -43 21 0 24 4 24 38 0 21 -6 47 -14 57 -12 17 -12 22
0 39 22 32 17 72 -12 95 -22 17 -41 21 -105 21 l-79 0 0 -125z m150 45 c0 -29
-2 -30 -45 -30 -43 0 -45 1 -45 30 0 29 2 30 45 30 43 0 45 -1 45 -30z"/>
<path d="M1870 1783 c0 -4 18 -37 40 -74 33 -55 40 -77 40 -118 0 -50 1 -51
30 -51 29 0 30 2 30 46 0 37 9 61 45 121 25 40 45 76 45 78 0 3 -13 5 -29 5
-25 0 -34 -8 -58 -50 l-29 -50 -29 50 c-24 41 -34 50 -57 50 -15 0 -28 -3 -28
-7z"/>
<path d="M2290 1666 l0 -126 30 0 c29 0 30 2 30 45 l0 45 49 0 c42 0 53 4 71
27 16 21 20 36 16 62 -9 55 -27 65 -116 69 l-80 4 0 -126z m138 45 c4 -28 -12
-41 -50 -41 -25 0 -28 3 -28 36 0 35 1 35 38 32 30 -2 38 -7 40 -27z"/>
<path d="M2530 1665 l0 -125 91 0 c88 0 90 1 87 23 -3 20 -9 22 -65 25 l-63 3
0 99 c0 100 0 100 -25 100 l-25 0 0 -125z"/>
<path d="M2782 1774 c-50 -34 -66 -116 -37 -178 35 -73 133 -87 188 -26 15 16
27 37 27 45 0 25 -46 18 -64 -10 -19 -29 -51 -32 -84 -9 -30 21 -32 102 -2
129 27 24 71 23 88 -4 17 -25 62 -29 62 -5 0 8 -13 29 -29 45 -25 24 -38 29
-78 29 -28 0 -58 -7 -71 -16z"/>
<path d="M3007 1584 c-12 -12 -8 -42 6 -47 21 -8 39 8 35 29 -3 19 -29 30 -41
18z"/>
</g>
</svg>
