<svg id="svg" version="1.1" width="400" height="608.4805653710247" viewBox="0 0 400 608.4805653710247" xmlns="http://www.w3.org/2000/svg" xmlns:xlink="http://www.w3.org/1999/xlink" ><g id="svgg"><path id="path0" d="M111.978 31.714 C 110.114 36.580,109.775 45.469,111.246 50.876 C 115.111 65.082,125.363 75.026,139.929 78.695 C 141.685 79.137,144.725 79.321,152.827 79.478 L 163.428 79.682 163.428 151.413 C 163.428 229.418,163.534 225.139,161.430 231.603 C 148.852 270.239,93.177 268.761,82.417 229.505 L 81.449 225.972 81.272 166.608 L 81.095 107.244 67.668 107.244 L 54.240 107.244 54.240 166.254 C 54.240 230.526,54.163 227.773,56.199 235.748 C 62.702 261.218,83.435 280.800,109.262 285.868 L 111.281 286.264 111.029 287.390 C 108.262 299.767,115.317 316.004,126.890 323.897 L 129.414 325.618 127.516 325.709 C 92.691 327.370,65.494 352.754,61.849 387.000 C 61.609 389.261,61.484 418.774,61.484 473.484 L 61.484 556.537 74.905 556.537 L 88.325 556.537 88.438 472.527 C 88.562 380.667,88.412 387.306,90.504 380.929 C 102.694 343.767,156.986 343.841,168.743 381.035 C 170.742 387.358,170.671 384.930,170.671 447.749 L 170.671 505.654 184.276 505.654 L 197.880 505.654 197.916 455.919 C 197.940 423.807,198.071 406.685,198.287 407.597 C 198.471 408.375,198.938 410.362,199.325 412.014 C 203.058 427.943,214.021 440.480,227.562 444.304 C 245.659 449.414,262.723 445.438,284.529 431.031 C 286.900 429.464,288.893 428.341,288.958 428.536 C 291.017 434.710,301.902 443.239,310.558 445.459 C 345.280 454.363,369.847 412.458,344.963 386.774 C 341.601 383.305,333.386 378.123,331.205 378.097 C 330.394 378.087,330.379 377.404,331.123 374.533 C 332.967 367.421,332.912 369.148,333.206 309.187 C 333.357 278.383,333.500 221.020,333.525 181.714 L 333.569 110.247 319.734 110.247 L 305.898 110.247 306.041 235.247 C 306.157 336.644,306.097 360.681,305.726 362.544 C 303.363 374.395,297.056 384.899,286.257 394.968 C 252.648 426.306,228.473 427.993,224.743 399.259 C 224.530 397.618,224.399 333.006,224.393 225.934 L 224.382 55.226 221.643 55.014 C 220.137 54.898,202.765 54.894,183.039 55.006 C 150.813 55.189,146.930 55.152,144.780 54.640 C 136.053 52.561,132.924 45.620,135.793 34.703 C 136.319 32.703,136.749 30.994,136.749 30.905 C 136.749 30.815,131.259 30.742,124.550 30.742 L 112.350 30.742 111.978 31.714 M196.820 192.756 L 196.820 306.007 171.466 306.003 C 144.954 305.998,144.338 305.967,141.410 304.452 C 136.668 301.999,134.356 296.640,135.280 290.247 C 135.919 285.827,135.988 285.715,138.395 285.184 C 163.924 279.554,184.207 257.898,189.475 230.644 L 190.242 226.678 190.361 153.092 L 190.480 79.505 193.650 79.505 L 196.820 79.505 196.820 192.756 M196.797 356.095 L 196.774 381.449 195.902 377.915 C 190.932 357.772,177.522 341.264,158.834 332.284 L 155.654 330.756 176.237 330.749 L 196.820 330.742 196.797 356.095 M324.690 400.367 C 330.453 402.847,333.326 410.594,330.606 416.322 C 325.193 427.718,308.127 423.912,308.127 411.307 C 308.127 402.664,316.765 396.959,324.690 400.367 " stroke="none" fill="#fbfbfa" fill-rule="evenodd"></path><path id="path1" d="M0.000 304.240 L 0.000 608.481 200.000 608.481 L 400.000 608.481 400.000 304.240 L 400.000 0.000 200.000 0.000 L 0.000 0.000 0.000 304.240 M137.228 31.095 C 137.151 32.420,136.729 34.713,136.415 35.512 C 133.920 41.857,136.073 50.407,140.644 52.300 C 141.223 52.540,141.696 52.876,141.696 53.046 C 141.696 53.217,142.025 53.357,142.426 53.357 C 142.828 53.357,143.451 53.515,143.811 53.708 C 144.233 53.933,158.682 54.061,184.415 54.067 C 223.428 54.075,224.371 54.091,224.726 54.753 C 224.972 55.214,225.088 110.289,225.088 226.827 C 225.088 334.953,225.213 398.779,225.427 399.730 C 225.614 400.559,225.964 402.191,226.207 403.357 C 226.449 404.523,226.854 405.689,227.108 405.947 C 227.361 406.206,227.469 406.578,227.347 406.775 C 226.500 408.147,232.616 416.620,234.860 417.183 C 235.316 417.298,235.689 417.533,235.689 417.706 C 235.689 417.879,236.055 418.021,236.502 418.021 C 236.949 418.021,237.473 418.180,237.667 418.374 C 238.165 418.872,248.023 418.903,248.518 418.408 C 248.730 418.195,249.420 418.021,250.050 418.021 C 250.680 418.021,251.282 417.880,251.389 417.707 C 251.496 417.534,252.022 417.283,252.558 417.150 C 253.786 416.844,257.569 415.224,257.951 414.842 C 258.048 414.744,259.226 414.108,260.570 413.428 C 264.140 411.620,264.311 411.519,264.311 411.224 C 264.311 411.075,264.459 410.954,264.639 410.954 C 264.951 410.954,269.237 408.237,269.611 407.802 C 269.708 407.690,270.583 407.047,271.555 406.375 C 272.527 405.702,273.375 405.026,273.439 404.873 C 273.504 404.719,273.710 404.594,273.897 404.594 C 274.348 404.594,278.220 401.377,280.212 399.348 C 281.087 398.457,281.910 397.758,282.041 397.795 C 282.278 397.862,291.718 388.620,293.144 386.924 C 294.170 385.704,297.619 380.599,298.216 379.417 C 298.485 378.883,298.838 378.445,299.000 378.445 C 299.161 378.445,299.293 378.271,299.293 378.058 C 299.293 377.845,299.590 377.249,299.952 376.733 C 300.314 376.217,300.823 375.199,301.083 374.470 C 301.343 373.741,301.682 373.145,301.838 373.145 C 301.993 373.145,302.120 372.859,302.120 372.509 C 302.120 372.159,302.252 371.722,302.412 371.537 C 302.573 371.352,302.909 370.486,303.159 369.611 C 303.409 368.737,303.743 367.703,303.901 367.314 C 304.229 366.504,304.490 365.361,305.028 362.367 C 305.295 360.885,305.446 322.655,305.530 235.178 C 305.614 148.227,305.764 109.995,306.023 109.736 C 306.654 109.104,332.989 109.019,333.511 109.647 C 334.065 110.316,333.851 362.408,333.292 366.431 C 333.090 367.889,332.819 369.876,332.691 370.848 C 332.562 371.820,332.327 372.933,332.169 373.322 C 330.979 376.234,330.975 377.739,332.155 377.739 C 332.521 377.739,332.919 377.898,333.039 378.092 C 333.159 378.286,333.466 378.445,333.721 378.445 C 334.372 378.445,340.549 381.892,341.371 382.714 C 341.744 383.087,342.176 383.392,342.331 383.392 C 342.735 383.392,348.010 388.743,348.516 389.666 C 348.749 390.092,349.616 391.404,350.442 392.581 C 351.268 393.759,351.943 394.797,351.943 394.889 C 351.943 394.981,352.349 395.890,352.844 396.910 C 355.667 402.723,356.893 417.662,354.734 419.947 C 354.560 420.132,354.417 420.651,354.417 421.100 C 354.417 421.550,354.258 422.234,354.064 422.620 C 353.869 423.006,353.551 423.637,353.357 424.023 C 353.163 424.410,353.004 425.032,353.004 425.407 C 353.004 425.783,352.884 426.143,352.739 426.207 C 352.593 426.272,351.934 427.359,351.274 428.622 C 350.614 429.885,349.962 430.998,349.825 431.095 C 349.688 431.193,349.371 431.661,349.120 432.136 C 348.579 433.162,346.695 435.289,344.599 437.239 C 343.714 438.061,343.163 438.853,343.274 439.141 C 343.387 439.435,343.284 439.573,343.021 439.482 C 342.778 439.399,341.705 439.921,340.636 440.643 C 339.567 441.365,337.341 442.632,335.689 443.460 C 334.037 444.287,332.409 445.104,332.072 445.274 C 331.734 445.444,331.216 445.583,330.919 445.583 C 330.622 445.583,330.103 445.728,329.766 445.905 C 327.149 447.279,310.837 447.275,309.382 445.900 C 309.197 445.726,308.758 445.583,308.405 445.583 C 308.053 445.583,307.448 445.424,307.062 445.230 C 306.676 445.035,306.045 444.717,305.659 444.523 C 305.272 444.329,304.807 444.170,304.624 444.170 C 304.244 444.170,299.186 441.109,297.871 440.083 C 296.179 438.763,291.204 433.537,290.986 432.850 C 290.864 432.468,290.617 432.155,290.436 432.155 C 290.254 432.155,290.106 431.917,290.106 431.625 C 290.106 431.334,289.985 431.095,289.836 431.095 C 289.688 431.095,289.410 430.748,289.218 430.323 C 288.741 429.267,288.266 429.191,287.366 430.030 C 286.946 430.422,286.521 430.742,286.421 430.742 C 286.322 430.742,285.004 431.540,283.491 432.516 C 281.979 433.492,280.434 434.486,280.058 434.725 C 279.681 434.964,279.027 435.517,278.604 435.954 C 278.180 436.391,277.550 436.749,277.203 436.749 C 276.427 436.749,272.792 438.557,272.792 438.943 C 272.792 439.097,272.551 439.223,272.257 439.223 C 271.963 439.223,271.446 439.364,271.108 439.537 C 270.771 439.710,269.700 440.206,268.728 440.639 C 267.756 441.072,266.350 441.726,265.603 442.091 C 264.855 442.457,263.954 442.756,263.600 442.756 C 263.246 442.756,262.903 442.875,262.839 443.021 C 262.774 443.167,261.528 443.662,260.071 444.121 C 258.613 444.580,257.102 445.085,256.714 445.243 C 256.325 445.401,255.530 445.630,254.947 445.752 C 254.364 445.874,253.171 446.149,252.297 446.362 C 250.000 446.921,237.355 447.133,234.982 446.652 C 227.814 445.197,225.744 444.624,222.694 443.245 C 221.668 442.782,220.606 442.403,220.334 442.403 C 220.061 442.403,219.628 442.203,219.372 441.958 C 219.115 441.714,217.350 440.343,215.450 438.912 C 211.926 436.257,208.915 433.233,206.967 430.389 C 206.367 429.514,205.787 428.719,205.677 428.622 C 205.260 428.254,202.764 423.544,202.118 421.908 C 201.850 421.228,201.538 420.592,201.426 420.495 C 201.238 420.333,199.438 415.053,198.715 412.544 C 198.538 411.928,198.336 431.312,198.233 458.834 L 198.057 506.184 184.411 506.276 C 173.266 506.352,170.692 506.281,170.367 505.889 C 170.076 505.539,169.934 489.471,169.842 446.433 C 169.721 390.557,169.631 384.747,168.868 383.940 C 168.694 383.755,168.551 383.236,168.551 382.787 C 168.551 382.337,168.411 381.693,168.239 381.356 C 168.067 381.018,167.731 380.265,167.491 379.682 C 167.251 379.099,166.915 378.346,166.743 378.008 C 166.572 377.671,166.431 377.176,166.431 376.908 C 166.431 376.640,166.113 376.016,165.724 375.522 C 165.336 375.028,165.018 374.395,165.018 374.116 C 165.018 373.836,164.700 373.320,164.311 372.968 C 163.922 372.616,163.604 372.115,163.604 371.853 C 163.604 371.592,163.484 371.378,163.337 371.378 C 163.190 371.378,162.865 370.914,162.614 370.347 C 162.192 369.395,157.466 364.357,155.460 362.721 C 153.969 361.505,151.958 360.071,151.745 360.071 C 151.633 360.071,150.844 359.591,149.992 359.005 C 149.140 358.419,147.919 357.843,147.278 357.725 C 146.637 357.607,145.944 357.302,145.738 357.047 C 145.303 356.511,141.813 355.124,140.896 355.124 C 140.554 355.124,139.997 354.982,139.660 354.808 C 136.826 353.350,125.569 353.108,120.671 354.399 C 108.123 357.707,98.984 364.881,93.414 375.795 C 91.637 379.276,90.106 383.736,90.106 385.428 C 90.106 386.035,89.947 386.629,89.753 386.749 C 89.519 386.894,89.399 415.606,89.399 471.740 C 89.399 554.527,89.384 556.521,88.731 556.870 C 88.010 557.256,62.086 557.439,61.477 557.063 C 60.994 556.764,61.001 384.574,61.484 384.276 C 61.678 384.156,61.837 383.375,61.837 382.541 C 61.837 381.707,61.979 380.563,62.153 380.000 C 62.326 379.436,62.671 378.021,62.919 376.855 C 63.167 375.689,63.472 374.576,63.597 374.382 C 63.722 374.187,64.034 373.154,64.290 372.085 C 64.546 371.016,64.869 369.982,65.007 369.788 C 65.146 369.594,65.520 368.763,65.838 367.943 C 66.806 365.450,68.975 361.038,69.968 359.541 C 70.484 358.763,70.994 357.883,71.102 357.584 C 71.438 356.655,77.562 348.697,79.645 346.482 C 80.734 345.325,81.625 344.251,81.625 344.097 C 81.625 343.943,81.855 343.816,82.135 343.816 C 82.416 343.816,82.875 343.488,83.156 343.087 C 83.437 342.687,84.360 341.854,85.208 341.236 C 86.055 340.619,87.226 339.686,87.809 339.164 C 90.881 336.413,99.050 331.765,103.887 330.016 C 104.567 329.770,105.275 329.435,105.459 329.272 C 105.644 329.109,106.151 328.975,106.587 328.975 C 107.022 328.975,107.477 328.816,107.597 328.622 C 107.717 328.428,108.194 328.269,108.657 328.269 C 109.120 328.269,109.597 328.110,109.717 327.915 C 109.837 327.721,110.394 327.562,110.954 327.562 C 111.514 327.562,112.058 327.424,112.162 327.255 C 112.266 327.087,113.031 326.849,113.861 326.726 C 114.692 326.604,116.246 326.332,117.314 326.123 C 118.383 325.913,121.166 325.635,123.498 325.504 L 127.739 325.265 126.101 324.205 C 123.349 322.424,119.661 318.699,116.129 314.134 C 115.391 313.180,112.014 306.143,112.014 305.559 C 112.014 305.245,111.873 304.901,111.700 304.794 C 111.527 304.688,111.312 304.082,111.222 303.449 C 111.131 302.815,110.787 301.051,110.455 299.529 C 109.839 296.697,109.815 289.703,110.414 287.544 C 110.679 286.586,110.661 286.572,109.052 286.572 C 108.155 286.572,107.420 286.413,107.420 286.219 C 107.420 286.025,106.951 285.866,106.377 285.866 C 105.803 285.866,104.968 285.724,104.522 285.551 C 104.076 285.378,102.518 284.882,101.060 284.448 C 98.687 283.743,96.379 282.844,94.616 281.940 C 94.279 281.767,93.762 281.625,93.468 281.625 C 93.174 281.625,92.933 281.466,92.933 281.272 C 92.933 281.078,92.734 280.919,92.491 280.920 C 91.941 280.921,89.053 279.482,88.412 278.887 C 88.150 278.645,87.550 278.349,87.078 278.231 C 86.605 278.112,86.219 277.908,86.219 277.776 C 86.219 277.645,85.702 277.237,85.071 276.869 C 84.439 276.501,83.265 275.711,82.461 275.114 C 81.657 274.517,80.629 273.790,80.175 273.498 C 79.721 273.207,78.391 272.082,77.219 270.999 C 76.047 269.917,74.810 268.804,74.470 268.526 C 73.308 267.578,67.563 260.919,66.396 259.168 C 65.755 258.207,65.126 257.341,64.998 257.244 C 63.982 256.474,58.128 244.793,57.710 242.700 C 57.598 242.140,57.367 241.596,57.198 241.491 C 57.029 241.387,56.890 240.990,56.890 240.610 C 56.890 240.231,56.747 239.644,56.572 239.306 C 56.396 238.969,56.067 237.977,55.841 237.102 C 55.614 236.228,55.281 235.024,55.100 234.427 C 54.919 233.830,54.770 232.789,54.770 232.113 C 54.770 231.437,54.623 230.732,54.444 230.548 C 53.748 229.833,53.644 222.697,53.500 165.678 L 53.351 106.798 54.149 106.584 C 55.167 106.311,79.431 106.293,80.786 106.564 L 81.802 106.767 81.805 164.426 C 81.807 196.138,81.934 222.959,82.088 224.028 C 82.580 227.434,83.176 230.035,83.465 230.035 C 83.619 230.035,83.746 230.515,83.746 231.100 C 83.746 231.686,83.890 232.441,84.066 232.779 C 84.242 233.116,85.208 235.084,86.212 237.152 C 87.216 239.220,88.344 241.241,88.719 241.643 C 89.093 242.044,89.399 242.466,89.399 242.580 C 89.399 243.070,96.449 250.514,96.924 250.524 C 97.078 250.527,97.621 250.917,98.131 251.390 C 98.641 251.862,99.628 252.538,100.324 252.891 C 101.020 253.245,101.643 253.653,101.708 253.799 C 101.773 253.944,101.987 254.064,102.183 254.064 C 102.380 254.064,102.963 254.354,103.479 254.709 C 103.995 255.063,104.973 255.556,105.654 255.804 C 106.334 256.052,107.248 256.398,107.686 256.573 C 109.749 257.397,110.163 257.541,111.484 257.893 C 115.316 258.915,117.075 259.072,124.357 259.045 C 127.327 259.034,129.606 258.875,129.816 258.665 C 130.014 258.466,130.772 258.304,131.499 258.304 C 132.226 258.304,132.919 258.145,133.039 257.951 C 133.159 257.756,133.630 257.597,134.086 257.597 C 134.542 257.597,135.527 257.291,136.274 256.917 C 137.021 256.544,138.785 255.713,140.194 255.073 C 141.603 254.432,142.756 253.784,142.756 253.632 C 142.756 253.481,142.961 253.357,143.211 253.357 C 143.462 253.357,144.217 252.886,144.890 252.311 C 145.563 251.736,146.312 251.259,146.555 251.251 C 146.798 251.243,146.996 251.078,146.996 250.883 C 146.996 250.689,147.222 250.530,147.497 250.530 C 147.772 250.530,148.051 250.408,148.115 250.259 C 148.180 250.109,148.636 249.672,149.129 249.287 C 151.465 247.461,157.244 240.300,157.244 239.233 C 157.244 239.016,157.562 238.498,157.951 238.081 C 158.339 237.664,158.657 237.035,158.657 236.682 C 158.657 236.330,158.789 236.042,158.951 236.042 C 159.112 236.042,159.606 234.890,160.047 233.481 C 160.489 232.072,160.993 230.643,161.167 230.305 C 161.341 229.968,161.484 229.244,161.484 228.697 C 161.484 228.151,161.628 227.552,161.803 227.367 C 162.558 226.574,162.643 219.943,162.770 151.866 L 162.904 80.233 152.919 80.094 C 147.426 80.018,142.058 79.781,140.989 79.569 C 139.920 79.357,138.527 79.079,137.893 78.950 C 137.259 78.822,136.654 78.576,136.547 78.404 C 136.441 78.233,135.886 78.092,135.315 78.092 C 134.743 78.092,134.276 77.933,134.276 77.739 C 134.276 77.544,133.878 77.385,133.392 77.385 C 132.906 77.385,132.508 77.266,132.508 77.120 C 132.507 76.974,131.633 76.458,130.565 75.972 C 129.498 75.486,128.624 74.969,128.623 74.823 C 128.622 74.678,128.454 74.558,128.249 74.558 C 127.687 74.558,123.677 71.757,122.374 70.454 C 121.743 69.823,121.017 69.177,120.758 69.018 C 120.500 68.858,119.501 67.698,118.537 66.438 C 117.573 65.179,116.538 63.871,116.236 63.532 C 115.533 62.740,113.153 58.340,112.310 56.272 C 112.052 55.640,111.738 55.124,111.612 55.124 C 111.485 55.124,111.298 54.527,111.196 53.799 C 110.939 51.960,110.601 50.480,110.248 49.647 C 109.101 46.938,109.289 38.563,110.598 34.099 C 110.826 33.322,111.101 32.208,111.209 31.625 C 111.507 30.017,111.342 30.035,124.735 30.127 L 137.279 30.212 137.228 31.095 M191.034 152.562 C 190.899 223.398,190.833 227.533,189.772 232.332 C 189.557 233.304,189.285 234.854,189.168 235.777 C 189.052 236.701,188.835 237.456,188.686 237.456 C 188.538 237.456,188.340 237.973,188.246 238.604 C 187.997 240.282,186.366 244.612,184.773 247.825 C 184.402 248.572,184.099 249.407,184.099 249.680 C 184.099 249.953,183.940 250.177,183.746 250.177 C 183.551 250.177,183.392 250.323,183.392 250.502 C 183.392 250.901,179.894 256.998,179.524 257.244 C 179.377 257.341,178.859 258.057,178.371 258.834 C 174.628 264.800,163.808 274.788,157.509 278.093 C 156.586 278.578,155.830 279.094,155.830 279.240 C 155.830 279.386,155.664 279.505,155.461 279.505 C 155.258 279.505,153.469 280.284,151.486 281.235 C 149.503 282.186,146.846 283.306,145.583 283.725 C 144.320 284.143,143.010 284.637,142.673 284.822 C 142.335 285.008,141.669 285.159,141.192 285.159 C 140.715 285.159,140.226 285.318,140.106 285.512 C 139.986 285.707,139.285 285.866,138.549 285.866 C 134.595 285.866,134.817 296.834,138.869 301.690 C 140.030 303.081,143.738 304.947,145.341 304.947 C 146.034 304.947,146.700 305.106,146.820 305.300 C 146.962 305.530,155.598 305.654,171.576 305.654 L 196.113 305.654 196.113 192.933 L 196.113 80.212 193.643 80.212 L 191.173 80.212 191.034 152.562 M158.481 331.449 C 158.601 331.643,158.906 331.802,159.159 331.802 C 159.412 331.802,160.777 332.438,162.191 333.216 C 163.605 333.993,164.886 334.629,165.037 334.629 C 165.188 334.629,165.365 334.748,165.430 334.894 C 165.601 335.280,167.757 336.749,168.152 336.749 C 168.464 336.749,170.839 338.529,173.322 340.625 C 175.997 342.883,181.847 348.791,183.304 350.707 C 184.191 351.873,185.051 352.880,185.214 352.945 C 185.378 353.009,185.512 353.225,185.512 353.424 C 185.512 353.623,185.955 354.365,186.495 355.073 C 187.035 355.781,187.698 356.798,187.968 357.332 C 188.238 357.867,188.591 358.304,188.752 358.304 C 188.914 358.304,189.046 358.613,189.046 358.990 C 189.046 359.367,189.198 359.770,189.384 359.884 C 189.683 360.069,192.846 366.393,193.675 368.463 C 193.850 368.900,194.136 369.616,194.311 370.053 C 194.485 370.490,194.949 371.882,195.342 373.145 L 196.056 375.442 196.085 353.269 L 196.113 331.095 177.188 331.095 C 164.661 331.095,158.336 331.215,158.481 331.449 M317.491 400.306 C 314.783 400.735,309.894 404.657,309.894 406.401 C 309.894 406.767,309.735 407.067,309.541 407.067 C 309.346 407.067,309.187 407.414,309.187 407.837 C 309.187 408.261,309.000 409.124,308.772 409.756 C 308.215 411.295,309.410 416.961,310.290 416.961 C 310.461 416.961,310.601 417.174,310.601 417.434 C 310.601 417.978,313.553 420.848,314.114 420.848 C 314.319 420.848,314.488 421.007,314.488 421.201 C 314.488 421.396,314.796 421.555,315.173 421.555 C 315.551 421.555,315.958 421.714,316.078 421.908 C 316.199 422.105,317.841 422.261,319.788 422.261 C 321.735 422.261,323.376 422.105,323.498 421.908 C 323.618 421.714,323.986 421.555,324.314 421.555 C 325.142 421.554,328.975 418.486,328.975 417.825 C 328.975 417.528,329.293 416.944,329.682 416.526 C 330.071 416.109,330.389 415.410,330.389 414.972 C 330.389 414.534,330.548 414.078,330.742 413.958 C 330.936 413.837,331.095 412.715,331.095 411.463 C 331.095 410.182,330.941 409.187,330.742 409.187 C 330.548 409.187,330.389 408.710,330.389 408.127 C 330.389 407.544,330.230 407.067,330.035 407.067 C 329.841 407.067,329.682 406.701,329.682 406.254 C 329.682 402.986,322.548 399.506,317.491 400.306 " stroke="none" fill="#f4931c" fill-rule="evenodd"></path><path id="path2" d="M112.248 30.649 C 112.156 30.797,117.580 30.875,124.300 30.821 C 133.894 30.745,136.588 30.821,136.838 31.175 C 137.079 31.516,137.121 31.497,137.012 31.095 C 136.854 30.517,112.601 30.079,112.248 30.649 M110.015 41.873 C 110.016 43.428,110.079 44.020,110.153 43.189 C 110.228 42.357,110.227 41.085,110.151 40.362 C 110.075 39.638,110.014 40.318,110.015 41.873 M134.742 41.696 C 134.742 42.959,134.806 43.476,134.885 42.845 C 134.963 42.213,134.963 41.179,134.885 40.548 C 134.806 39.916,134.742 40.433,134.742 41.696 M158.922 55.035 C 165.967 55.089,177.496 55.089,184.541 55.035 C 191.586 54.982,185.822 54.938,171.731 54.938 C 157.641 54.938,151.877 54.982,158.922 55.035 M221.473 55.026 C 222.108 55.105,223.062 55.103,223.593 55.023 C 224.124 54.942,223.604 54.878,222.438 54.880 C 221.272 54.882,220.838 54.948,221.473 55.026 M120.833 68.286 C 122.298 69.846,122.615 70.127,122.615 69.862 C 122.615 69.805,121.860 69.050,120.936 68.183 L 119.258 66.608 120.833 68.286 M130.035 75.085 C 130.035 75.327,132.199 76.399,132.361 76.238 C 132.437 76.161,131.945 75.834,131.268 75.511 C 130.590 75.188,130.035 74.996,130.035 75.085 M154.328 79.767 L 163.249 79.871 163.340 149.741 L 163.430 219.611 163.429 149.647 L 163.428 79.682 154.417 79.673 L 145.406 79.663 154.328 79.767 M191.961 79.765 C 192.884 79.838,194.395 79.838,195.318 79.765 C 196.241 79.692,195.486 79.633,193.640 79.633 C 191.793 79.633,191.038 79.692,191.961 79.765 M312.809 110.159 C 316.648 110.216,322.928 110.216,326.767 110.159 C 330.605 110.102,327.465 110.055,319.788 110.055 C 312.111 110.055,308.971 110.102,312.809 110.159 M54.160 223.675 C 54.160 224.549,54.229 224.907,54.313 224.470 C 54.397 224.033,54.397 223.317,54.313 222.880 C 54.229 222.443,54.160 222.800,54.160 223.675 M81.354 223.322 C 81.354 224.002,81.427 224.280,81.516 223.940 C 81.605 223.600,81.605 223.043,81.516 222.703 C 81.427 222.363,81.354 222.641,81.354 223.322 M190.202 224.028 C 190.202 224.903,190.271 225.261,190.355 224.823 C 190.440 224.386,190.440 223.670,190.355 223.233 C 190.271 222.796,190.202 223.154,190.202 224.028 M92.580 247.527 C 93.635 248.595,94.578 249.470,94.676 249.470 C 94.773 249.470,93.988 248.595,92.933 247.527 C 91.877 246.458,90.934 245.583,90.837 245.583 C 90.740 245.583,91.524 246.458,92.580 247.527 M151.049 248.145 L 148.940 250.353 151.148 248.244 C 153.200 246.285,153.519 245.936,153.257 245.936 C 153.203 245.936,152.209 246.930,151.049 248.145 M100.707 253.869 C 100.707 253.966,101.184 254.292,101.767 254.594 C 102.350 254.895,102.827 255.062,102.827 254.965 C 102.827 254.868,102.350 254.542,101.767 254.240 C 101.184 253.939,100.707 253.772,100.707 253.869 M120.230 259.978 C 121.347 260.049,123.176 260.049,124.293 259.978 C 125.411 259.908,124.496 259.851,122.261 259.851 C 120.027 259.851,119.112 259.908,120.230 259.978 M170.485 267.226 L 168.021 269.788 170.583 267.324 C 172.962 265.035,173.306 264.664,173.047 264.664 C 172.993 264.664,171.840 265.817,170.485 267.226 M73.322 266.784 C 74.279 267.756,75.141 268.551,75.238 268.551 C 75.336 268.551,74.632 267.756,73.675 266.784 C 72.718 265.813,71.855 265.018,71.758 265.018 C 71.661 265.018,72.364 265.813,73.322 266.784 M306.179 312.544 C 306.179 337.809,306.221 348.093,306.272 335.397 C 306.323 322.700,306.323 302.029,306.272 289.460 C 306.221 276.891,306.179 287.279,306.179 312.544 M333.387 313.604 C 333.387 339.452,333.429 349.974,333.481 336.987 C 333.532 323.999,333.532 302.850,333.481 289.990 C 333.429 277.130,333.387 287.756,333.387 313.604 M110.373 293.110 C 110.372 294.859,110.431 295.619,110.506 294.799 C 110.580 293.979,110.581 292.547,110.508 291.618 C 110.434 290.689,110.374 291.360,110.373 293.110 M135.095 292.933 C 135.095 294.196,135.160 294.713,135.238 294.081 C 135.316 293.450,135.316 292.416,135.238 291.784 C 135.160 291.153,135.095 291.670,135.095 292.933 M113.453 307.951 C 113.453 308.145,113.680 308.701,113.958 309.187 C 114.235 309.673,114.463 309.912,114.463 309.717 C 114.463 309.523,114.235 308.966,113.958 308.481 C 113.680 307.995,113.453 307.756,113.453 307.951 M115.018 311.307 C 115.319 311.890,115.645 312.367,115.743 312.367 C 115.840 312.367,115.673 311.890,115.371 311.307 C 115.070 310.724,114.743 310.247,114.646 310.247 C 114.549 310.247,114.716 310.724,115.018 311.307 M122.350 326.039 C 122.690 326.128,123.246 326.128,123.587 326.039 C 123.927 325.950,123.648 325.877,122.968 325.877 C 122.288 325.877,122.010 325.950,122.350 326.039 M98.852 332.711 C 97.482 333.454,97.637 333.711,99.028 333.003 C 100.360 332.326,100.596 332.150,100.147 332.170 C 99.969 332.177,99.386 332.421,98.852 332.711 M175.265 343.286 C 175.924 343.966,176.543 344.523,176.640 344.523 C 176.738 344.523,176.278 343.966,175.618 343.286 C 174.959 342.606,174.340 342.049,174.243 342.049 C 174.146 342.049,174.606 342.606,175.265 343.286 M80.919 345.760 C 80.060 346.634,79.438 347.350,79.535 347.350 C 79.632 347.350,80.414 346.634,81.272 345.760 C 82.130 344.885,82.753 344.170,82.656 344.170 C 82.559 344.170,81.777 344.885,80.919 345.760 M179.505 347.460 C 179.505 347.521,180.022 348.038,180.654 348.609 L 181.802 349.647 180.764 348.498 C 179.797 347.428,179.505 347.187,179.505 347.460 M128.004 352.910 C 128.927 352.983,130.437 352.983,131.360 352.910 C 132.284 352.837,131.528 352.778,129.682 352.778 C 127.836 352.778,127.080 352.837,128.004 352.910 M190.352 363.070 C 190.675 363.748,191.002 364.239,191.079 364.163 C 191.240 364.001,190.168 361.837,189.926 361.837 C 189.837 361.837,190.029 362.392,190.352 363.070 M100.163 365.106 L 98.410 366.961 100.265 365.208 C 101.989 363.578,102.282 363.251,102.019 363.251 C 101.963 363.251,101.128 364.086,100.163 365.106 M163.559 370.848 C 163.750 371.237,164.165 371.873,164.481 372.261 L 165.057 372.968 164.710 372.261 C 164.519 371.873,164.104 371.237,163.787 370.848 L 163.212 370.141 163.559 370.848 M333.598 378.932 C 333.960 379.259,336.749 380.561,336.749 380.403 C 336.749 380.202,334.082 378.799,333.701 378.799 C 333.563 378.799,333.517 378.859,333.598 378.932 M342.049 383.856 C 342.049 383.917,342.566 384.434,343.198 385.005 L 344.346 386.042 343.308 384.894 C 342.341 383.824,342.049 383.583,342.049 383.856 M293.640 386.926 C 293.024 387.703,292.600 388.339,292.697 388.339 C 292.794 388.339,293.377 387.703,293.993 386.926 C 294.609 386.148,295.033 385.512,294.936 385.512 C 294.839 385.512,294.255 386.148,293.640 386.926 M61.566 387.986 C 61.566 388.666,61.639 388.944,61.728 388.604 C 61.817 388.264,61.817 387.708,61.728 387.367 C 61.639 387.027,61.566 387.306,61.566 387.986 M345.230 387.036 C 345.230 387.097,345.746 387.614,346.378 388.185 L 347.527 389.223 346.489 388.074 C 345.521 387.004,345.230 386.763,345.230 387.036 M170.400 390.106 C 170.400 390.786,170.473 391.064,170.562 390.724 C 170.650 390.384,170.650 389.828,170.562 389.488 C 170.473 389.148,170.400 389.426,170.400 390.106 M289.399 391.696 C 287.951 393.154,286.846 394.346,286.943 394.346 C 287.041 394.346,288.305 393.154,289.753 391.696 C 291.201 390.239,292.306 389.046,292.208 389.046 C 292.111 389.046,290.847 390.239,289.399 391.696 M88.513 474.028 C 88.513 519.505,88.554 538.057,88.604 515.254 C 88.654 492.452,88.654 455.243,88.604 432.569 C 88.554 409.894,88.513 428.551,88.513 474.028 M224.464 396.466 C 224.464 397.147,224.536 397.425,224.625 397.085 C 224.714 396.745,224.714 396.188,224.625 395.848 C 224.536 395.508,224.464 395.786,224.464 396.466 M283.392 397.350 C 282.534 398.224,281.911 398.940,282.008 398.940 C 282.106 398.940,282.887 398.224,283.746 397.350 C 284.604 396.475,285.227 395.760,285.129 395.760 C 285.032 395.760,284.251 396.475,283.392 397.350 M318.646 399.549 C 319.281 399.628,320.235 399.626,320.766 399.546 C 321.297 399.465,320.777 399.401,319.611 399.403 C 318.445 399.405,318.011 399.471,318.646 399.549 M311.462 402.915 L 310.424 404.064 311.572 403.026 C 312.643 402.058,312.883 401.767,312.610 401.767 C 312.549 401.767,312.033 402.284,311.462 402.915 M355.230 411.307 C 355.230 412.376,355.296 412.814,355.377 412.279 C 355.458 411.745,355.458 410.870,355.377 410.336 C 355.296 409.801,355.230 410.239,355.230 411.307 M331.545 411.307 C 331.545 412.182,331.614 412.540,331.698 412.102 C 331.782 411.665,331.782 410.950,331.698 410.512 C 331.614 410.075,331.545 410.433,331.545 411.307 M257.597 415.548 C 256.917 415.920,256.488 416.231,256.643 416.240 C 257.017 416.259,259.011 415.223,259.011 415.009 C 259.011 414.777,258.990 414.785,257.597 415.548 M308.834 415.683 C 308.834 416.062,309.885 418.021,310.089 418.021 C 310.186 418.021,310.003 417.504,309.681 416.873 C 309.026 415.583,308.834 415.314,308.834 415.683 M310.601 418.838 C 310.601 418.899,311.117 419.416,311.749 419.987 L 312.898 421.025 311.860 419.876 C 310.892 418.806,310.601 418.565,310.601 418.838 M242.491 419.688 C 243.026 419.769,243.900 419.769,244.435 419.688 C 244.969 419.607,244.532 419.541,243.463 419.541 C 242.394 419.541,241.957 419.607,242.491 419.688 M318.993 423.218 C 319.430 423.302,320.146 423.302,320.583 423.218 C 321.020 423.133,320.663 423.064,319.788 423.064 C 318.913 423.064,318.556 423.133,318.993 423.218 M347.335 433.304 C 346.678 434.130,346.421 434.581,346.762 434.307 C 347.405 433.790,348.919 431.802,348.670 431.802 C 348.592 431.802,347.991 432.478,347.335 433.304 M209.187 432.619 C 209.187 432.680,209.704 433.197,210.336 433.768 L 211.484 434.806 210.446 433.657 C 209.479 432.587,209.187 432.346,209.187 432.619 M211.661 435.093 C 211.661 435.154,212.178 435.670,212.809 436.241 L 213.958 437.279 212.920 436.131 C 211.952 435.060,211.661 434.820,211.661 435.093 M295.053 436.860 C 295.053 436.920,295.570 437.437,296.201 438.008 L 297.350 439.046 296.312 437.898 C 295.345 436.827,295.053 436.587,295.053 436.860 M247.792 446.533 C 248.132 446.622,248.688 446.622,249.028 446.533 C 249.368 446.444,249.090 446.372,248.410 446.372 C 247.730 446.372,247.451 446.444,247.792 446.533 " stroke="none" fill="#ecb378" fill-rule="evenodd"></path><path id="path3" d="M109.976 38.163 C 109.976 38.843,110.049 39.121,110.138 38.781 C 110.226 38.441,110.226 37.884,110.138 37.544 C 110.049 37.204,109.976 37.482,109.976 38.163 M135.064 39.576 C 135.064 40.256,135.137 40.534,135.226 40.194 C 135.315 39.854,135.315 39.298,135.226 38.958 C 135.137 38.617,135.064 38.896,135.064 39.576 M109.623 42.403 C 109.623 43.083,109.695 43.361,109.784 43.021 C 109.873 42.681,109.873 42.125,109.784 41.784 C 109.695 41.444,109.623 41.723,109.623 42.403 M109.990 45.936 C 109.990 46.811,110.059 47.169,110.143 46.731 C 110.228 46.294,110.228 45.579,110.143 45.141 C 110.059 44.704,109.990 45.062,109.990 45.936 M136.044 47.915 C 136.042 48.448,137.871 50.905,138.906 51.759 C 139.430 52.192,139.328 51.990,138.639 51.229 C 138.027 50.553,137.193 49.443,136.786 48.763 C 136.378 48.083,136.044 47.701,136.044 47.915 M164.957 54.682 C 175.903 54.734,193.713 54.734,204.532 54.682 C 215.352 54.630,206.396 54.588,184.629 54.588 C 162.862 54.588,154.010 54.630,164.957 54.682 M224.557 225.265 C 224.557 318.940,224.597 357.209,224.647 310.307 C 224.696 263.405,224.696 186.762,224.647 139.989 C 224.597 93.216,224.557 131.590,224.557 225.265 M120.495 68.375 C 121.154 69.055,121.773 69.611,121.870 69.611 C 121.967 69.611,121.507 69.055,120.848 68.375 C 120.189 67.694,119.570 67.138,119.473 67.138 C 119.376 67.138,119.835 67.694,120.495 68.375 M128.269 74.363 C 128.269 74.461,128.746 74.787,129.329 75.088 C 129.912 75.390,130.389 75.557,130.389 75.460 C 130.389 75.363,129.912 75.036,129.329 74.735 C 128.746 74.433,128.269 74.266,128.269 74.363 M143.905 79.749 C 144.245 79.838,144.801 79.838,145.141 79.749 C 145.481 79.660,145.203 79.587,144.523 79.587 C 143.843 79.587,143.564 79.660,143.905 79.749 M151.855 80.122 C 153.458 80.187,156.082 80.187,157.686 80.122 C 159.289 80.056,157.977 80.003,154.770 80.003 C 151.564 80.003,150.252 80.056,151.855 80.122 M190.545 151.855 C 190.593 191.453,190.672 212.164,190.722 197.880 C 190.963 128.696,190.964 79.859,190.724 79.859 C 190.579 79.859,190.498 112.257,190.545 151.855 M191.961 80.102 C 192.301 80.191,192.858 80.191,193.198 80.102 C 193.538 80.013,193.260 79.941,192.580 79.941 C 191.899 79.941,191.621 80.013,191.961 80.102 M195.318 80.114 L 196.466 80.257 196.466 192.953 L 196.466 305.649 171.643 305.742 L 146.820 305.835 171.820 305.921 L 196.820 306.007 196.820 192.933 L 196.820 79.859 195.495 79.915 C 194.190 79.971,194.187 79.974,195.318 80.114 M163.071 153.357 C 163.071 191.740,163.112 207.443,163.163 188.251 C 163.213 169.059,163.213 137.655,163.163 118.463 C 163.112 99.271,163.071 114.973,163.071 153.357 M61.066 106.978 C 64.820 107.036,70.862 107.036,74.493 106.978 C 78.124 106.921,75.053 106.874,67.668 106.874 C 60.283 106.874,57.312 106.921,61.066 106.978 M53.883 165.371 C 53.883 197.341,53.924 210.420,53.975 194.435 C 54.026 178.450,54.026 152.292,53.975 136.307 C 53.924 120.322,53.883 133.401,53.883 165.371 M81.445 164.841 C 81.445 196.519,81.486 209.427,81.537 193.523 C 81.588 177.620,81.588 151.702,81.537 135.926 C 81.486 120.151,81.445 133.163,81.445 164.841 M312.986 109.805 C 316.727 109.862,322.849 109.862,326.590 109.805 C 330.331 109.748,327.270 109.701,319.788 109.701 C 312.306 109.701,309.245 109.748,312.986 109.805 M333.742 188.693 C 333.742 231.935,333.784 249.625,333.834 228.004 C 333.884 206.383,333.884 171.003,333.834 149.382 C 333.784 127.761,333.742 145.451,333.742 188.693 M305.827 189.753 C 305.827 232.606,305.868 250.137,305.919 228.710 C 305.969 207.284,305.969 172.222,305.919 150.795 C 305.868 129.368,305.827 146.899,305.827 189.753 M81.707 224.382 C 81.707 225.062,81.780 225.340,81.869 225.000 C 81.958 224.660,81.958 224.103,81.869 223.763 C 81.780 223.423,81.707 223.701,81.707 224.382 M162.626 224.735 C 162.626 225.415,162.699 225.693,162.788 225.353 C 162.877 225.013,162.877 224.457,162.788 224.117 C 162.699 223.777,162.626 224.055,162.626 224.735 M54.146 226.148 C 54.146 226.829,54.218 227.107,54.307 226.767 C 54.396 226.427,54.396 225.870,54.307 225.530 C 54.218 225.190,54.146 225.468,54.146 226.148 M190.188 226.502 C 190.188 227.182,190.261 227.460,190.350 227.120 C 190.438 226.780,190.438 226.223,190.350 225.883 C 190.261 225.543,190.188 225.822,190.188 226.502 M86.255 238.604 C 87.065 240.212,90.025 244.523,90.318 244.523 C 90.416 244.523,89.791 243.529,88.930 242.314 C 88.069 241.100,87.025 239.430,86.608 238.604 C 86.192 237.778,85.772 237.102,85.675 237.102 C 85.578 237.102,85.839 237.778,86.255 238.604 M157.420 239.576 C 157.119 240.159,156.952 240.636,157.049 240.636 C 157.146 240.636,157.472 240.159,157.774 239.576 C 158.075 238.993,158.243 238.516,158.145 238.516 C 158.048 238.516,157.722 238.993,157.420 239.576 M90.459 244.974 C 90.459 245.027,91.692 246.259,93.198 247.712 L 95.936 250.353 93.295 247.615 C 90.842 245.071,90.459 244.715,90.459 244.974 M151.237 247.527 C 149.789 248.984,148.684 250.177,148.781 250.177 C 148.878 250.177,150.142 248.984,151.590 247.527 C 153.038 246.069,154.143 244.876,154.046 244.876 C 153.949 244.876,152.685 246.069,151.237 247.527 M60.071 247.839 C 60.071 248.218,61.122 250.177,61.326 250.177 C 61.423 250.177,61.239 249.660,60.918 249.028 C 60.262 247.739,60.071 247.470,60.071 247.839 M183.632 248.956 C 182.802 250.697,182.919 250.993,183.787 249.348 C 184.181 248.601,184.441 247.927,184.364 247.851 C 184.288 247.775,183.959 248.272,183.632 248.956 M145.534 252.317 C 144.744 253.005,144.740 253.024,145.475 252.668 C 145.901 252.462,146.348 252.135,146.468 251.942 C 146.815 251.380,146.434 251.533,145.534 252.317 M133.746 257.951 C 133.300 258.142,133.235 258.254,133.569 258.254 C 133.860 258.254,134.417 258.118,134.806 257.951 C 135.251 257.759,135.316 257.647,134.982 257.647 C 134.691 257.647,134.134 257.784,133.746 257.951 M176.652 260.336 C 175.813 261.453,175.365 262.176,175.655 261.942 C 176.250 261.462,178.574 258.304,178.333 258.304 C 178.247 258.304,177.491 259.218,176.652 260.336 M66.710 259.187 C 66.911 259.576,67.660 260.530,68.373 261.307 L 69.670 262.721 68.333 260.954 C 66.653 258.734,66.246 258.291,66.710 259.187 M117.403 259.608 C 117.743 259.696,118.299 259.696,118.640 259.608 C 118.980 259.519,118.701 259.446,118.021 259.446 C 117.341 259.446,117.063 259.519,117.403 259.608 M125.711 259.614 C 126.150 259.698,126.786 259.695,127.124 259.607 C 127.462 259.518,127.102 259.449,126.325 259.453 C 125.548 259.457,125.271 259.529,125.711 259.614 M174.006 263.693 L 172.968 264.841 174.117 263.803 C 175.187 262.836,175.427 262.544,175.154 262.544 C 175.094 262.544,174.577 263.061,174.006 263.693 M69.611 263.008 C 69.611 263.069,70.128 263.586,70.760 264.157 L 71.908 265.194 70.870 264.046 C 69.903 262.975,69.611 262.735,69.611 263.008 M72.085 265.835 C 72.085 265.896,72.602 266.413,73.233 266.983 L 74.382 268.021 73.344 266.873 C 72.376 265.802,72.085 265.562,72.085 265.835 M169.946 268.110 L 168.728 269.435 170.053 268.217 C 171.286 267.083,171.541 266.784,171.271 266.784 C 171.212 266.784,170.615 267.381,169.946 268.110 M75.972 269.402 C 76.904 270.444,80.212 273.308,80.212 273.073 C 80.212 272.997,79.059 271.918,77.650 270.675 C 76.241 269.432,75.486 268.859,75.972 269.402 M166.078 271.440 C 164.724 272.693,164.563 272.914,165.548 272.171 C 166.859 271.180,168.493 269.592,168.164 269.627 C 168.086 269.635,167.147 270.451,166.078 271.440 M161.307 275.119 L 160.247 276.030 161.396 275.270 C 162.027 274.852,162.544 274.442,162.544 274.358 C 162.544 274.093,162.395 274.185,161.307 275.119 M158.746 276.719 C 157.541 277.490,157.151 278.008,158.216 277.423 C 159.026 276.978,160.296 275.996,160.071 275.989 C 159.973 275.986,159.377 276.315,158.746 276.719 M109.435 286.336 C 110.138 286.555,110.622 286.968,110.712 287.426 C 110.823 287.988,110.869 287.932,110.906 287.191 C 110.941 286.484,110.785 286.218,110.336 286.214 C 109.996 286.212,109.399 286.159,109.011 286.096 C 108.622 286.034,108.813 286.142,109.435 286.336 M135.418 295.053 C 135.418 295.733,135.490 296.011,135.579 295.671 C 135.668 295.331,135.668 294.775,135.579 294.435 C 135.490 294.095,135.418 294.373,135.418 295.053 M137.071 300.294 C 137.261 300.650,137.695 301.167,138.034 301.442 C 138.416 301.752,138.331 301.506,137.810 300.795 C 136.882 299.527,136.534 299.292,137.071 300.294 M121.008 319.346 C 122.554 320.940,124.541 322.736,125.425 323.336 C 126.811 324.277,126.862 324.291,125.795 323.440 C 125.115 322.897,123.127 321.101,121.378 319.450 L 118.198 316.447 121.008 319.346 M127.517 324.855 C 127.960 325.392,127.780 325.448,125.397 325.511 L 122.792 325.580 125.179 325.704 C 128.026 325.851,129.008 325.499,127.818 324.758 C 127.099 324.310,127.073 324.318,127.517 324.855 M110.424 327.915 C 109.524 328.302,110.453 328.302,111.661 327.915 C 112.371 327.688,112.406 327.630,111.837 327.622 C 111.449 327.616,110.813 327.748,110.424 327.915 M177.297 331.007 L 196.466 331.101 196.461 354.155 C 196.457 369.169,196.336 377.024,196.113 376.678 C 195.640 375.946,195.687 376.543,196.265 378.622 C 196.698 380.177,196.760 377.416,196.788 355.565 L 196.820 330.742 177.473 330.827 L 158.127 330.913 177.297 331.007 M100.707 331.625 C 100.221 331.903,99.982 332.130,100.177 332.130 C 100.371 332.130,100.928 331.903,101.413 331.625 C 101.899 331.348,102.138 331.120,101.943 331.120 C 101.749 331.120,101.193 331.348,100.707 331.625 M165.371 335.440 C 165.371 335.520,166.459 336.309,167.788 337.193 C 169.118 338.077,171.145 339.540,172.294 340.445 C 174.381 342.089,174.381 342.089,172.792 340.612 C 171.019 338.965,165.371 335.028,165.371 335.440 M88.769 338.781 C 87.924 339.607,87.910 339.647,88.676 339.051 C 90.184 337.876,90.256 337.809,90.006 337.809 C 89.873 337.809,89.316 338.246,88.769 338.781 M83.569 343.002 C 82.597 343.899,82.120 344.463,82.509 344.254 C 83.182 343.893,85.824 341.327,85.493 341.357 C 85.407 341.365,84.541 342.105,83.569 343.002 M178.107 345.760 C 180.148 347.898,182.422 350.362,183.160 351.237 C 184.194 352.461,184.138 352.340,182.917 350.707 C 182.045 349.541,179.770 347.076,177.863 345.230 L 174.395 341.873 178.107 345.760 M80.366 346.025 L 79.329 347.173 80.477 346.135 C 81.548 345.168,81.788 344.876,81.515 344.876 C 81.454 344.876,80.937 345.393,80.366 346.025 M78.073 348.675 L 76.855 350.000 78.180 348.782 C 79.414 347.649,79.668 347.350,79.398 347.350 C 79.339 347.350,78.743 347.946,78.073 348.675 M125.535 353.257 C 126.072 353.338,126.867 353.336,127.302 353.252 C 127.736 353.168,127.297 353.102,126.325 353.105 C 125.353 353.107,124.998 353.176,125.535 353.257 M132.067 353.253 C 132.504 353.337,133.220 353.337,133.657 353.253 C 134.095 353.169,133.737 353.100,132.862 353.100 C 131.988 353.100,131.630 353.169,132.067 353.253 M150.353 358.840 C 150.742 359.157,151.378 359.572,151.767 359.763 L 152.473 360.110 151.767 359.534 C 151.378 359.218,150.742 358.803,150.353 358.612 L 149.647 358.265 150.353 358.840 M152.650 360.199 C 152.650 360.296,153.127 360.716,153.710 361.131 C 154.293 361.546,154.770 361.806,154.770 361.709 C 154.770 361.612,154.293 361.193,153.710 360.777 C 153.127 360.362,152.650 360.102,152.650 360.199 M189.576 361.131 C 189.877 361.714,190.204 362.191,190.301 362.191 C 190.398 362.191,190.231 361.714,189.929 361.131 C 189.628 360.548,189.302 360.071,189.204 360.071 C 189.107 360.071,189.274 360.548,189.576 361.131 M333.312 361.837 C 333.312 362.712,333.381 363.070,333.465 362.633 C 333.549 362.195,333.549 361.480,333.465 361.042 C 333.381 360.605,333.312 360.963,333.312 361.837 M67.650 364.347 C 66.954 365.728,66.443 366.914,66.514 366.985 C 66.584 367.055,67.229 365.926,67.947 364.475 C 68.665 363.024,69.176 361.837,69.083 361.837 C 68.990 361.837,68.345 362.967,67.650 364.347 M100.507 365.106 C 98.374 367.310,95.676 370.412,97.203 368.905 C 98.921 367.209,103.278 362.544,103.144 362.544 C 103.057 362.544,101.870 363.697,100.507 365.106 M157.244 363.631 C 157.244 363.713,158.305 364.894,159.603 366.254 C 161.256 367.989,161.531 368.200,160.521 366.961 C 159.112 365.232,157.244 363.333,157.244 363.631 M191.196 364.134 C 191.196 364.329,191.500 365.044,191.873 365.724 C 192.245 366.405,192.550 366.802,192.550 366.608 C 192.550 366.413,192.245 365.698,191.873 365.018 C 191.500 364.337,191.196 363.940,191.196 364.134 M304.089 367.340 C 303.959 367.858,303.921 368.349,304.004 368.433 C 304.087 368.516,304.262 368.160,304.392 367.643 C 304.522 367.125,304.560 366.633,304.477 366.550 C 304.393 366.466,304.219 366.822,304.089 367.340 M95.842 370.583 C 94.927 371.904,94.630 372.438,94.809 372.438 C 94.891 372.438,95.380 371.802,95.894 371.025 C 96.940 369.445,96.894 369.063,95.842 370.583 M64.513 371.933 C 64.383 372.451,64.345 372.943,64.428 373.026 C 64.511 373.110,64.686 372.754,64.816 372.236 C 64.946 371.718,64.984 371.227,64.901 371.143 C 64.817 371.060,64.643 371.416,64.513 371.933 M331.670 372.836 C 331.375 374.309,331.661 374.594,331.979 373.145 C 332.113 372.534,332.149 371.961,332.059 371.871 C 331.969 371.781,331.794 372.215,331.670 372.836 M166.809 377.208 C 166.809 377.403,167.037 377.959,167.314 378.445 C 167.592 378.931,167.819 379.170,167.819 378.975 C 167.819 378.781,167.592 378.224,167.314 377.739 C 167.037 377.253,166.809 377.014,166.809 377.208 M295.760 383.746 C 295.345 384.329,295.084 384.806,295.182 384.806 C 295.279 384.806,295.698 384.329,296.113 383.746 C 296.528 383.163,296.788 382.686,296.691 382.686 C 296.594 382.686,296.175 383.163,295.760 383.746 M344.700 386.219 C 346.050 387.580,347.234 388.693,347.331 388.693 C 347.428 388.693,346.403 387.580,345.053 386.219 C 343.703 384.859,342.519 383.746,342.422 383.746 C 342.325 383.746,343.350 384.859,344.700 386.219 M61.573 385.689 C 61.577 386.466,61.649 386.743,61.734 386.303 C 61.819 385.864,61.815 385.228,61.727 384.890 C 61.638 384.552,61.569 384.912,61.573 385.689 M289.242 391.456 C 285.405 395.530,285.319 395.648,288.296 392.756 C 291.083 390.050,293.981 386.866,293.581 386.951 C 293.516 386.964,291.564 388.992,289.242 391.456 M170.054 388.869 C 170.058 389.647,170.130 389.923,170.215 389.484 C 170.299 389.044,170.296 388.408,170.207 388.070 C 170.119 387.732,170.050 388.092,170.054 388.869 M61.305 472.261 C 61.305 518.516,61.346 537.491,61.396 514.428 C 61.446 491.365,61.446 453.520,61.396 430.329 C 61.346 407.137,61.305 426.007,61.305 472.261 M88.866 472.792 C 88.866 518.754,88.907 537.557,88.958 514.576 C 89.008 491.595,89.008 453.989,88.958 431.007 C 88.907 408.026,88.866 426.829,88.866 472.792 M170.493 448.498 L 170.495 505.830 184.276 505.837 L 198.057 505.843 184.365 505.744 L 170.674 505.645 170.583 448.406 L 170.491 391.166 170.493 448.498 M350.494 393.463 C 351.090 394.615,351.579 395.254,351.577 394.876 C 351.575 394.682,351.249 394.125,350.852 393.640 C 350.372 393.053,350.252 392.993,350.494 393.463 M224.841 397.527 C 224.841 398.595,224.907 399.033,224.988 398.498 C 225.069 397.964,225.069 397.089,224.988 396.555 C 224.907 396.020,224.841 396.458,224.841 397.527 M282.686 397.703 C 281.827 398.578,281.204 399.293,281.302 399.293 C 281.399 399.293,282.181 398.578,283.039 397.703 C 283.897 396.829,284.520 396.113,284.423 396.113 C 284.326 396.113,283.544 396.829,282.686 397.703 M279.660 400.442 L 278.622 401.590 279.770 400.552 C 280.402 399.981,280.919 399.465,280.919 399.404 C 280.919 399.131,280.627 399.371,279.660 400.442 M311.532 403.165 C 310.631 404.128,309.894 405.030,309.894 405.167 C 309.894 405.305,309.945 405.352,310.006 405.271 C 310.068 405.190,310.885 404.289,311.822 403.269 C 312.758 402.248,313.445 401.413,313.348 401.413 C 313.250 401.413,312.434 402.202,311.532 403.165 M326.902 402.189 C 327.413 402.637,328.261 403.481,328.787 404.064 L 329.742 405.124 328.807 403.825 C 328.292 403.111,327.444 402.267,326.922 401.950 L 325.972 401.374 326.902 402.189 M270.053 407.809 C 269.227 408.394,268.551 408.951,268.551 409.047 C 268.551 409.143,269.267 408.729,270.141 408.127 C 271.016 407.525,271.731 406.961,271.731 406.873 C 271.731 406.630,271.664 406.668,270.053 407.809 M355.220 408.127 C 355.220 409.002,355.289 409.360,355.373 408.922 C 355.457 408.485,355.457 407.769,355.373 407.332 C 355.289 406.895,355.220 407.253,355.220 408.127 M198.001 456.184 L 198.050 505.477 198.230 457.244 C 198.329 430.716,198.307 408.534,198.181 407.951 C 198.055 407.367,197.974 429.072,198.001 456.184 M308.223 411.307 C 308.223 412.182,308.292 412.540,308.377 412.102 C 308.461 411.665,308.461 410.950,308.377 410.512 C 308.292 410.075,308.223 410.433,308.223 411.307 M228.799 411.661 C 229.100 412.244,229.426 412.721,229.523 412.721 C 229.621 412.721,229.453 412.244,229.152 411.661 C 228.850 411.078,228.524 410.601,228.427 410.601 C 228.330 410.601,228.497 411.078,228.799 411.661 M331.192 412.721 C 331.192 413.595,331.261 413.953,331.345 413.516 C 331.429 413.079,331.429 412.363,331.345 411.926 C 331.261 411.489,331.192 411.846,331.192 412.721 M261.396 413.276 C 260.075 413.993,260.155 414.291,261.484 413.604 C 262.067 413.303,262.544 412.981,262.544 412.888 C 262.544 412.661,262.506 412.674,261.396 413.276 M355.220 414.488 C 355.220 415.362,355.289 415.720,355.373 415.283 C 355.457 414.845,355.457 414.130,355.373 413.693 C 355.289 413.255,355.220 413.613,355.220 414.488 M231.979 415.726 C 232.756 416.439,233.710 417.187,234.099 417.389 C 234.996 417.853,234.553 417.446,232.332 415.766 L 230.565 414.429 231.979 415.726 M330.016 416.518 C 329.218 418.111,329.229 418.268,330.053 417.035 C 330.480 416.395,330.757 415.798,330.667 415.708 C 330.577 415.618,330.284 415.983,330.016 416.518 M254.417 416.784 C 253.931 417.062,253.693 417.289,253.887 417.289 C 254.081 417.289,254.638 417.062,255.124 416.784 C 255.610 416.507,255.848 416.279,255.654 416.279 C 255.459 416.279,254.903 416.507,254.417 416.784 M354.629 418.057 C 354.499 418.866,354.463 419.598,354.547 419.682 C 354.631 419.767,354.811 419.178,354.947 418.375 C 355.083 417.571,355.120 416.839,355.029 416.749 C 354.939 416.658,354.758 417.247,354.629 418.057 M311.484 419.435 C 312.243 420.212,312.944 420.848,313.041 420.848 C 313.138 420.848,312.597 420.212,311.837 419.435 C 311.078 418.657,310.378 418.021,310.281 418.021 C 310.183 418.021,310.725 418.657,311.484 419.435 M236.926 418.711 C 237.604 419.019,239.497 419.219,239.193 418.951 C 239.112 418.880,238.410 418.725,237.633 418.606 C 236.647 418.456,236.433 418.488,236.926 418.711 M241.784 419.341 C 242.708 419.414,244.218 419.414,245.141 419.341 C 246.064 419.268,245.309 419.209,243.463 419.209 C 241.617 419.209,240.861 419.268,241.784 419.341 M327.915 419.393 C 327.915 419.564,327.160 420.198,326.237 420.802 C 325.314 421.406,324.689 421.902,324.848 421.904 C 325.222 421.909,328.166 419.887,328.448 419.430 C 328.567 419.238,328.495 419.081,328.289 419.081 C 328.084 419.081,327.915 419.221,327.915 419.393 M202.120 421.329 C 202.120 421.713,204.229 425.795,204.427 425.795 C 204.524 425.795,204.106 424.801,203.497 423.587 C 202.343 421.284,202.120 420.919,202.120 421.329 M317.756 422.858 C 318.096 422.947,318.653 422.947,318.993 422.858 C 319.333 422.770,319.055 422.697,318.375 422.697 C 317.694 422.697,317.416 422.770,317.756 422.858 M320.410 422.865 C 320.850 422.949,321.486 422.946,321.824 422.858 C 322.162 422.769,321.802 422.700,321.025 422.704 C 320.247 422.708,319.971 422.780,320.410 422.865 M350.591 428.798 C 350.012 429.867,349.685 430.651,349.864 430.540 C 350.228 430.315,352.045 426.855,351.799 426.855 C 351.713 426.855,351.170 427.730,350.591 428.798 M289.102 429.682 C 289.533 430.265,289.944 430.742,290.016 430.742 C 290.087 430.742,289.864 430.265,289.520 429.682 C 289.175 429.099,288.764 428.622,288.606 428.622 C 288.448 428.622,288.671 429.099,289.102 429.682 M211.131 434.982 C 212.285 436.148,213.308 437.102,213.405 437.102 C 213.503 437.102,212.638 436.148,211.484 434.982 C 210.330 433.816,209.307 432.862,209.209 432.862 C 209.112 432.862,209.977 433.816,211.131 434.982 M344.907 436.531 L 344.054 437.633 345.065 436.671 C 345.621 436.143,346.005 435.647,345.918 435.570 C 345.831 435.492,345.376 435.925,344.907 436.531 M294.876 437.102 C 295.635 437.880,296.336 438.516,296.433 438.516 C 296.530 438.516,295.989 437.880,295.230 437.102 C 294.471 436.325,293.770 435.689,293.673 435.689 C 293.576 435.689,294.117 436.325,294.876 437.102 M341.868 438.983 C 340.893 439.795,339.701 440.745,339.218 441.093 C 338.373 441.703,338.384 441.703,339.509 441.093 C 340.586 440.509,344.220 437.476,343.816 437.497 C 343.719 437.502,342.842 438.171,341.868 438.983 M271.731 438.693 C 270.857 439.161,270.267 439.551,270.420 439.560 C 270.796 439.581,273.498 438.193,273.498 437.979 C 273.498 437.745,273.513 437.739,271.731 438.693 M297.300 439.142 C 297.580 439.594,299.647 441.124,299.647 440.879 C 299.647 440.791,299.063 440.275,298.349 439.730 C 297.636 439.186,297.164 438.921,297.300 439.142 M216.846 439.604 C 217.284 440.135,219.435 441.488,219.435 441.233 C 219.435 441.151,218.759 440.638,217.933 440.093 C 217.107 439.548,216.618 439.328,216.846 439.604 M267.138 440.813 C 266.652 441.090,266.413 441.318,266.608 441.318 C 266.802 441.318,267.359 441.090,267.845 440.813 C 268.330 440.535,268.569 440.308,268.375 440.308 C 268.180 440.308,267.624 440.535,267.138 440.813 M301.060 441.855 C 301.060 441.952,301.537 442.278,302.120 442.580 C 302.703 442.881,303.180 443.048,303.180 442.951 C 303.180 442.854,302.703 442.528,302.120 442.226 C 301.537 441.925,301.060 441.757,301.060 441.855 M333.746 444.005 C 332.858 444.433,332.829 444.481,333.569 444.303 C 334.055 444.186,334.603 443.949,334.788 443.777 C 335.246 443.349,334.994 443.404,333.746 444.005 M240.564 446.906 C 242.177 446.972,244.721 446.972,246.218 446.905 C 247.715 446.839,246.396 446.786,243.286 446.786 C 240.177 446.787,238.952 446.841,240.564 446.906 M317.580 446.905 C 318.794 446.974,320.782 446.974,321.996 446.905 C 323.211 446.836,322.217 446.779,319.788 446.779 C 317.359 446.779,316.365 446.836,317.580 446.905 M61.560 556.730 C 61.796 556.967,88.052 556.942,88.288 556.706 C 88.381 556.613,82.362 556.537,74.912 556.537 C 67.462 556.537,61.453 556.624,61.560 556.730 " stroke="none" fill="#e09a44" fill-rule="evenodd"></path><path id="path4" d="M111.749 30.269 C 111.506 30.367,111.326 30.872,111.348 31.390 C 111.380 32.116,111.427 32.170,111.555 31.625 C 111.646 31.237,111.976 30.720,112.288 30.477 C 112.855 30.036,112.585 29.932,111.749 30.269 M125.064 30.298 L 137.055 30.398 137.225 31.188 C 137.373 31.877,137.387 31.865,137.337 31.095 L 137.279 30.212 125.177 30.205 L 113.074 30.198 125.064 30.298 M136.274 34.406 C 136.128 34.963,136.092 35.503,136.194 35.605 C 136.478 35.889,136.826 34.751,136.674 34.031 C 136.575 33.560,136.470 33.659,136.274 34.406 M110.114 35.526 C 109.993 35.842,109.908 36.365,109.924 36.690 C 109.941 37.014,110.095 36.810,110.266 36.237 C 110.599 35.122,110.481 34.570,110.114 35.526 M135.732 36.572 C 135.703 36.961,135.598 37.677,135.498 38.163 L 135.316 39.046 135.694 38.179 C 135.902 37.702,136.008 36.987,135.929 36.589 C 135.789 35.884,135.784 35.884,135.732 36.572 M109.335 40.489 C 109.205 41.185,109.240 42.576,109.413 43.581 C 109.717 45.342,109.729 45.298,109.759 42.314 C 109.792 38.946,109.699 38.547,109.335 40.489 M135.071 41.873 C 135.075 42.650,135.148 42.927,135.232 42.487 C 135.317 42.048,135.314 41.411,135.225 41.074 C 135.137 40.736,135.068 41.095,135.071 41.873 M135.396 44.876 C 135.414 45.794,135.970 47.302,135.982 46.466 C 135.988 46.078,135.856 45.442,135.689 45.053 C 135.503 44.620,135.389 44.552,135.396 44.876 M109.894 48.330 C 109.894 48.934,110.051 49.525,110.242 49.643 C 110.459 49.778,110.507 49.421,110.368 48.692 C 110.070 47.130,109.894 46.995,109.894 48.330 M138.348 50.893 C 139.492 52.086,141.696 53.497,141.696 53.034 C 141.696 52.870,141.216 52.537,140.629 52.294 C 140.042 52.051,139.178 51.395,138.708 50.838 C 138.239 50.280,137.735 49.823,137.589 49.823 C 137.443 49.823,137.785 50.305,138.348 50.893 M111.335 53.975 C 111.320 54.607,111.466 55.124,111.661 55.124 C 111.855 55.124,112.014 55.353,112.014 55.633 C 112.014 55.913,112.176 56.242,112.375 56.365 C 112.573 56.488,112.506 55.980,112.227 55.237 C 111.947 54.495,111.638 53.648,111.541 53.357 C 111.443 53.065,111.351 53.344,111.335 53.975 M163.665 54.329 C 174.291 54.380,191.782 54.380,202.535 54.329 C 213.287 54.277,204.594 54.234,183.216 54.234 C 161.837 54.234,153.040 54.277,163.665 54.329 M222.968 54.322 C 223.454 54.412,224.050 54.648,224.293 54.847 C 224.645 55.137,224.753 89.798,224.823 225.573 L 224.911 395.936 225.000 225.684 C 225.061 108.727,224.974 55.218,224.723 54.748 C 224.467 54.269,224.016 54.078,223.221 54.112 C 222.252 54.153,222.215 54.184,222.968 54.322 M112.723 57.111 C 112.721 57.556,114.461 60.777,114.704 60.777 C 114.850 60.777,114.702 60.464,113.284 57.774 C 112.977 57.191,112.724 56.893,112.723 57.111 M114.841 61.244 C 114.841 61.397,115.239 62.107,115.724 62.822 C 116.210 63.537,116.608 63.997,116.608 63.844 C 116.608 63.692,116.210 62.982,115.724 62.267 C 115.239 61.552,114.841 61.092,114.841 61.244 M118.988 67.093 C 119.719 68.040,120.623 69.012,120.995 69.253 C 121.368 69.494,120.827 68.719,119.794 67.531 C 117.534 64.933,117.163 64.731,118.988 67.093 M121.908 69.732 C 121.908 70.374,127.326 74.558,128.156 74.558 C 128.310 74.558,127.563 73.981,126.497 73.276 C 125.431 72.571,123.962 71.425,123.233 70.731 C 122.504 70.036,121.908 69.587,121.908 69.732 M138.869 79.147 C 139.161 79.338,139.784 79.497,140.253 79.500 C 141.387 79.507,141.100 79.306,139.576 79.027 C 138.706 78.867,138.496 78.903,138.869 79.147 M142.828 79.911 C 143.080 80.070,144.638 80.185,146.290 80.166 C 149.820 80.124,149.416 79.958,145.302 79.761 C 143.690 79.684,142.577 79.751,142.828 79.911 M190.979 80.300 C 190.756 80.899,190.590 225.429,190.813 225.206 C 190.993 225.025,191.424 79.859,191.243 79.859 C 191.189 79.859,191.070 80.057,190.979 80.300 M196.288 192.933 C 196.288 255.027,196.328 280.428,196.378 249.382 C 196.428 218.335,196.428 167.531,196.378 136.484 C 196.328 105.437,196.288 130.839,196.288 192.933 M53.975 106.604 C 53.335 106.771,53.012 222.857,53.647 224.457 C 53.779 224.790,53.844 198.615,53.793 166.290 C 53.714 117.197,53.777 107.452,54.177 107.120 C 54.507 106.846,58.695 106.692,67.699 106.625 L 80.742 106.528 67.668 106.485 C 60.477 106.462,54.315 106.515,53.975 106.604 M321.171 109.452 C 329.881 109.525,333.125 109.665,333.539 109.987 C 334.034 110.373,334.043 110.352,333.614 109.806 C 333.167 109.236,332.202 109.194,321.246 109.271 L 309.364 109.354 321.171 109.452 M81.880 223.852 C 81.988 225.018,82.134 226.038,82.205 226.119 C 82.452 226.404,82.258 223.487,81.972 222.615 C 81.792 222.066,81.757 222.535,81.880 223.852 M162.280 225.265 C 162.284 226.042,162.356 226.319,162.441 225.879 C 162.525 225.440,162.522 224.804,162.434 224.466 C 162.345 224.128,162.276 224.488,162.280 225.265 M54.064 228.719 C 54.064 229.614,54.221 230.444,54.413 230.563 C 54.635 230.700,54.681 230.164,54.540 229.082 C 54.247 226.847,54.064 226.707,54.064 228.719 M161.720 227.444 C 161.590 227.574,161.498 228.170,161.516 228.769 L 161.548 229.859 161.889 228.671 C 162.231 227.485,162.164 227.000,161.720 227.444 M190.161 228.445 C 190.125 229.028,190.008 229.903,189.900 230.389 C 189.731 231.148,189.760 231.185,190.103 230.648 C 190.322 230.304,190.439 229.430,190.363 228.704 C 190.244 227.565,190.216 227.530,190.161 228.445 M83.317 231.095 C 83.402 231.678,83.534 232.155,83.609 232.155 C 83.684 232.155,83.746 231.678,83.746 231.095 C 83.746 230.512,83.614 230.035,83.453 230.035 C 83.293 230.035,83.231 230.512,83.317 231.095 M161.013 230.271 C 160.883 230.400,160.787 230.838,160.800 231.243 C 160.820 231.920,160.849 231.911,161.161 231.132 C 161.507 230.267,161.435 229.849,161.013 230.271 M54.811 232.862 C 54.795 233.348,54.935 233.984,55.124 234.276 C 55.560 234.951,55.560 234.224,55.124 232.862 L 54.841 231.979 54.811 232.862 M84.806 235.067 C 84.806 235.436,86.343 238.156,86.476 238.023 C 86.548 237.951,86.264 237.277,85.845 236.526 C 85.027 235.059,84.806 234.748,84.806 235.067 M55.482 235.895 C 55.485 236.268,55.649 236.811,55.847 237.102 C 56.108 237.490,56.141 237.347,55.968 236.572 C 55.677 235.273,55.475 234.991,55.482 235.895 M188.617 236.396 C 188.532 236.979,188.593 237.456,188.754 237.456 C 188.914 237.456,189.046 236.979,189.046 236.396 C 189.046 235.813,188.984 235.336,188.909 235.336 C 188.834 235.336,188.703 235.813,188.617 236.396 M157.832 238.190 C 157.486 238.594,157.254 239.077,157.316 239.263 C 157.378 239.450,157.715 239.119,158.063 238.529 C 158.802 237.278,158.719 237.155,157.832 238.190 M187.917 238.693 C 187.797 239.276,187.595 240.150,187.469 240.636 C 187.331 241.169,187.464 241.034,187.804 240.296 C 188.115 239.622,188.316 238.748,188.252 238.352 C 188.163 237.801,188.085 237.880,187.917 238.693 M156.044 241.351 C 154.865 243.132,154.320 243.816,152.130 246.267 C 150.457 248.139,150.446 248.166,151.887 246.820 C 153.360 245.444,155.458 242.868,156.708 240.901 C 157.681 239.369,157.091 239.769,156.044 241.351 M93.275 247.516 C 94.913 249.162,96.304 250.457,96.367 250.394 C 96.505 250.256,90.769 244.523,90.492 244.523 C 90.386 244.523,91.638 245.870,93.275 247.516 M185.033 246.541 C 184.914 246.889,184.661 247.531,184.469 247.968 C 183.904 249.261,184.367 248.874,185.012 247.514 C 185.338 246.827,185.525 246.184,185.427 246.086 C 185.329 245.988,185.152 246.193,185.033 246.541 M148.802 249.491 C 148.337 249.878,148.031 250.269,148.123 250.361 C 148.214 250.452,148.662 250.130,149.118 249.645 C 150.109 248.590,149.967 248.520,148.802 249.491 M61.006 250.442 C 61.095 250.782,61.487 251.458,61.876 251.943 C 62.561 252.798,62.560 252.777,61.850 251.325 C 61.084 249.758,60.728 249.385,61.006 250.442 M96.820 250.683 C 96.820 250.767,97.337 251.186,97.968 251.616 L 99.117 252.396 98.160 251.463 C 97.262 250.587,96.820 250.329,96.820 250.683 M146.996 250.883 C 146.996 251.078,146.798 251.243,146.555 251.251 C 146.312 251.259,145.563 251.736,144.890 252.311 C 144.217 252.886,143.462 253.357,143.211 253.357 C 142.961 253.357,142.756 253.499,142.756 253.672 C 142.756 253.845,142.120 254.241,141.343 254.552 C 140.565 254.863,139.929 255.201,139.929 255.302 C 139.929 255.709,142.480 254.381,145.016 252.653 C 147.693 250.828,148.021 250.530,147.350 250.530 C 147.155 250.530,146.996 250.689,146.996 250.883 M63.776 255.300 C 64.328 256.272,64.884 257.147,65.010 257.244 C 65.137 257.341,65.819 258.300,66.525 259.374 C 67.232 260.449,68.255 261.721,68.799 262.200 L 69.788 263.072 68.850 262.013 C 68.334 261.431,66.848 259.364,65.548 257.420 C 62.840 253.373,62.342 252.778,63.776 255.300 M180.201 255.672 C 179.774 256.363,179.494 256.997,179.579 257.082 C 179.664 257.167,180.089 256.602,180.525 255.826 C 181.507 254.079,181.258 253.961,180.201 255.672 M109.923 257.724 C 110.004 257.794,110.548 257.958,111.131 258.088 C 111.905 258.261,112.048 258.229,111.661 257.967 C 111.184 257.644,109.569 257.418,109.923 257.724 M113.428 258.657 C 114.790 259.093,115.516 259.093,114.841 258.657 C 114.549 258.469,113.913 258.328,113.428 258.345 L 112.544 258.374 113.428 258.657 M129.862 258.652 C 129.728 258.869,130.084 258.917,130.813 258.778 C 132.375 258.480,132.510 258.304,131.175 258.304 C 130.571 258.304,129.980 258.461,129.862 258.652 M116.784 258.995 C 114.243 259.406,122.456 259.818,125.795 259.447 L 128.799 259.114 124.205 259.149 C 121.678 259.169,119.293 259.090,118.905 258.975 C 118.516 258.860,117.562 258.869,116.784 258.995 M176.751 260.690 C 175.389 262.514,175.365 262.577,176.517 261.307 C 177.668 260.040,178.636 258.655,178.369 258.659 C 178.314 258.659,177.586 259.574,176.751 260.690 M173.268 264.841 C 172.295 265.910,171.612 266.784,171.749 266.784 C 171.887 266.784,172.746 265.910,173.659 264.841 C 174.573 263.772,175.256 262.898,175.178 262.898 C 175.099 262.898,174.240 263.772,173.268 264.841 M70.671 264.488 C 71.331 265.168,71.950 265.724,72.047 265.724 C 72.144 265.724,71.684 265.168,71.025 264.488 C 70.365 263.807,69.747 263.251,69.649 263.251 C 69.552 263.251,70.012 263.807,70.671 264.488 M73.045 267.145 C 73.671 267.801,74.242 268.267,74.315 268.180 C 74.388 268.093,73.877 267.556,73.178 266.987 L 71.908 265.952 73.045 267.145 M333.651 314.841 C 333.601 341.175,333.477 363.118,333.377 363.604 L 333.196 364.488 333.560 363.658 C 333.806 363.098,333.895 347.259,333.834 314.895 L 333.743 266.961 333.651 314.841 M305.825 313.074 C 305.825 338.242,305.867 348.538,305.919 335.954 C 305.970 323.370,305.970 302.778,305.919 290.194 C 305.867 277.610,305.825 287.906,305.825 313.074 M168.551 269.646 L 166.608 271.440 168.640 269.776 C 170.423 268.316,170.908 267.834,170.583 267.848 C 170.534 267.851,169.620 268.660,168.551 269.646 M77.032 270.848 C 78.377 272.111,79.596 273.145,79.740 273.145 C 80.064 273.145,75.186 268.591,74.837 268.568 C 74.699 268.559,75.687 269.585,77.032 270.848 M82.509 275.078 C 83.576 276.013,84.806 276.814,84.806 276.574 C 84.806 276.503,84.050 275.928,83.127 275.297 C 81.857 274.428,81.706 274.374,82.509 275.078 M159.364 276.678 C 158.878 277.058,158.655 277.373,158.867 277.377 C 159.080 277.382,159.542 277.067,159.894 276.678 C 160.700 275.788,160.502 275.788,159.364 276.678 M85.689 277.243 C 86.078 277.615,86.873 278.130,87.456 278.386 C 88.792 278.974,88.246 278.458,86.396 277.385 C 85.259 276.726,85.121 276.698,85.689 277.243 M157.155 277.941 C 155.834 278.657,155.915 278.956,157.244 278.269 C 157.827 277.967,158.304 277.645,158.304 277.553 C 158.304 277.325,158.266 277.338,157.155 277.941 M88.693 279.065 C 88.693 279.222,89.170 279.530,89.753 279.750 C 90.336 279.971,90.813 280.089,90.813 280.014 C 90.813 279.938,90.336 279.630,89.753 279.329 C 89.170 279.027,88.693 278.909,88.693 279.065 M154.682 279.354 C 153.400 280.050,153.445 280.251,154.770 279.750 C 155.353 279.530,155.830 279.226,155.830 279.074 C 155.830 278.727,155.844 278.723,154.682 279.354 M151.590 280.919 C 150.910 281.291,150.481 281.602,150.636 281.611 C 151.010 281.630,153.004 280.594,153.004 280.380 C 153.004 280.148,152.983 280.156,151.590 280.919 M148.057 282.538 C 147.564 282.812,147.407 283.026,147.703 283.022 C 147.995 283.019,148.542 282.783,148.919 282.498 C 149.770 281.854,149.245 281.879,148.057 282.538 M97.703 283.392 C 97.823 283.587,98.270 283.734,98.696 283.721 C 99.442 283.697,99.445 283.685,98.763 283.392 C 97.791 282.974,97.445 282.974,97.703 283.392 M104.594 285.496 C 104.885 285.693,105.428 285.857,105.801 285.860 C 106.705 285.868,106.423 285.665,105.124 285.375 C 104.349 285.201,104.207 285.234,104.594 285.496 M138.693 285.512 L 137.633 285.782 138.760 285.824 C 139.380 285.847,139.986 285.707,140.106 285.512 C 140.348 285.121,140.229 285.121,138.693 285.512 M107.420 286.219 C 107.420 286.413,107.858 286.561,108.392 286.548 C 109.253 286.526,109.283 286.488,108.657 286.219 C 107.692 285.804,107.420 285.804,107.420 286.219 M136.453 286.764 C 135.861 288.064,135.974 288.341,136.614 287.160 C 136.913 286.608,137.092 286.090,137.011 286.010 C 136.930 285.929,136.679 286.268,136.453 286.764 M109.990 290.106 C 109.990 290.981,110.059 291.338,110.143 290.901 C 110.228 290.464,110.228 289.748,110.143 289.311 C 110.059 288.874,109.990 289.231,109.990 290.106 M135.579 290.901 C 135.466 292.116,135.492 294.064,135.638 295.230 C 135.862 297.017,135.907 296.670,135.927 293.021 C 135.954 288.151,135.880 287.700,135.579 290.901 M109.957 295.053 C 109.961 296.511,110.084 298.101,110.230 298.587 C 110.376 299.072,110.427 298.039,110.342 296.290 C 110.148 292.251,109.948 291.608,109.957 295.053 M136.749 299.147 C 136.749 299.545,138.992 302.473,139.296 302.473 C 139.465 302.473,139.266 302.116,138.853 301.678 C 138.440 301.241,137.873 300.446,137.593 299.912 C 137.117 299.003,136.749 298.670,136.749 299.147 M140.636 303.504 C 141.487 304.198,142.049 304.424,142.049 304.073 C 142.049 303.980,141.533 303.653,140.901 303.345 L 139.753 302.784 140.636 303.504 M111.332 303.778 C 111.319 304.204,111.466 304.650,111.661 304.770 C 112.079 305.029,112.079 304.683,111.661 303.710 C 111.368 303.029,111.356 303.031,111.332 303.778 M144.170 305.087 C 144.170 305.163,144.792 305.286,145.553 305.358 C 146.314 305.431,146.862 305.368,146.769 305.219 C 146.601 304.947,144.170 304.823,144.170 305.087 M115.548 313.247 C 115.548 313.431,116.274 314.356,117.599 315.860 C 118.047 316.368,117.833 315.950,117.124 314.929 C 115.932 313.214,115.548 312.804,115.548 313.247 M119.435 318.173 C 121.384 320.356,124.360 323.084,125.571 323.797 L 126.678 324.449 125.618 323.638 C 125.035 323.191,123.127 321.467,121.378 319.807 C 119.629 318.146,118.754 317.411,119.435 318.173 M119.258 325.802 C 118.809 325.999,119.325 326.037,120.671 325.905 C 121.837 325.790,122.858 325.639,122.939 325.569 C 123.252 325.298,119.927 325.508,119.258 325.802 M115.371 326.518 C 114.878 326.741,115.093 326.773,116.078 326.623 C 116.855 326.505,117.557 326.350,117.638 326.278 C 117.942 326.011,116.049 326.211,115.371 326.518 M112.191 327.208 C 111.930 327.630,112.623 327.630,113.604 327.208 C 114.235 326.937,114.209 326.902,113.360 326.880 C 112.837 326.866,112.311 327.014,112.191 327.208 M196.032 353.622 C 195.980 366.011,196.051 376.387,196.191 376.678 C 196.331 376.970,196.450 366.833,196.456 354.152 C 196.462 341.471,196.390 331.095,196.297 331.095 C 196.204 331.095,196.085 341.232,196.032 353.622 M96.820 333.216 C 96.334 333.596,95.822 333.910,95.681 333.914 C 94.901 333.938,86.462 339.929,87.209 339.929 C 87.394 339.929,87.753 339.680,88.005 339.376 C 88.557 338.711,92.463 336.140,96.113 334.039 C 97.571 333.200,98.525 332.516,98.233 332.519 C 97.942 332.522,97.306 332.835,96.820 333.216 M161.484 333.025 C 161.484 333.122,162.120 333.526,162.898 333.922 C 163.675 334.319,164.311 334.564,164.311 334.467 C 164.311 334.369,163.675 333.965,162.898 333.569 C 162.120 333.172,161.484 332.927,161.484 333.025 M169.502 337.978 C 170.505 338.654,171.427 339.369,171.550 339.568 C 171.673 339.767,171.951 339.929,172.167 339.929 C 172.384 339.929,171.640 339.214,170.514 338.339 C 169.388 337.465,168.289 336.749,168.072 336.749 C 167.855 336.749,168.498 337.302,169.502 337.978 M85.024 341.340 C 84.270 341.911,83.405 342.742,83.101 343.186 C 82.798 343.630,83.336 343.293,84.296 342.437 C 85.257 341.581,86.193 340.746,86.378 340.581 C 87.139 339.904,86.302 340.373,85.024 341.340 M176.222 343.561 C 178.011 345.274,180.383 347.662,181.493 348.868 C 182.602 350.073,183.177 350.583,182.770 350.000 C 182.025 348.934,175.500 342.459,173.852 341.149 C 173.366 340.763,174.432 341.848,176.222 343.561 M78.064 348.322 C 76.419 350.091,75.475 351.237,75.662 351.237 C 75.746 351.237,76.654 350.283,77.681 349.117 C 79.743 346.774,80.001 346.237,78.064 348.322 M183.824 351.767 C 184.134 352.155,185.436 354.056,186.717 355.990 C 187.998 357.924,189.046 359.236,189.046 358.905 C 189.046 358.575,188.914 358.304,188.752 358.304 C 188.591 358.304,188.238 357.867,187.968 357.332 C 187.698 356.798,187.035 355.781,186.495 355.073 C 185.955 354.365,185.512 353.680,185.512 353.552 C 185.512 353.424,185.006 352.810,184.386 352.189 C 183.767 351.568,183.514 351.378,183.824 351.767 M126.148 353.374 C 124.800 353.549,125.278 353.585,127.711 353.490 C 129.639 353.414,131.296 353.274,131.392 353.178 C 131.625 352.946,128.574 353.060,126.148 353.374 M132.955 353.610 C 133.493 353.692,134.288 353.690,134.722 353.606 C 135.157 353.522,134.717 353.455,133.746 353.458 C 132.774 353.461,132.418 353.529,132.955 353.610 M121.025 354.064 C 120.579 354.255,120.514 354.367,120.848 354.367 C 121.140 354.367,121.696 354.231,122.085 354.064 C 122.530 353.872,122.596 353.760,122.261 353.760 C 121.970 353.760,121.413 353.897,121.025 354.064 M136.926 354.047 C 137.604 354.354,139.497 354.555,139.193 354.287 C 139.112 354.216,138.410 354.061,137.633 353.942 C 136.647 353.792,136.433 353.824,136.926 354.047 M72.068 356.032 C 71.457 356.920,71.012 357.702,71.080 357.770 C 71.148 357.838,71.721 357.111,72.353 356.155 C 73.804 353.964,73.562 353.859,72.068 356.032 M118.198 354.770 C 117.752 354.962,117.687 355.074,118.021 355.074 C 118.313 355.074,118.869 354.937,119.258 354.770 C 119.703 354.579,119.769 354.467,119.435 354.467 C 119.143 354.467,118.587 354.603,118.198 354.770 M139.744 354.756 C 139.869 354.958,140.386 355.124,140.892 355.124 C 142.000 355.124,141.872 354.954,140.518 354.629 C 139.861 354.471,139.595 354.515,139.744 354.756 M145.583 356.902 C 145.583 357.294,145.883 357.424,147.527 357.745 C 148.493 357.934,148.464 357.890,147.198 357.245 C 145.587 356.423,145.583 356.423,145.583 356.902 M148.763 358.040 C 148.763 358.264,151.498 360.071,151.838 360.071 C 151.982 360.071,151.787 359.857,151.404 359.595 C 149.718 358.444,148.763 357.882,148.763 358.040 M105.066 361.425 C 102.224 363.540,98.317 367.448,96.868 369.623 C 96.149 370.702,96.192 370.680,97.225 369.435 C 99.755 366.386,102.751 363.467,105.118 361.746 C 107.971 359.672,108.350 359.364,108.052 359.364 C 107.933 359.364,106.589 360.291,105.066 361.425 M189.625 360.601 C 190.442 361.996,190.459 362.017,190.459 361.582 C 190.459 361.377,190.132 360.834,189.732 360.375 L 189.004 359.541 189.625 360.601 M305.173 360.498 C 305.054 360.943,304.974 361.864,304.996 362.544 C 305.026 363.488,305.102 363.322,305.316 361.839 C 305.612 359.798,305.540 359.128,305.173 360.498 M68.754 361.538 C 68.448 362.151,68.198 362.743,68.198 362.854 C 68.198 363.160,69.110 361.744,69.365 361.042 C 69.732 360.031,69.352 360.339,68.754 361.538 M154.965 362.287 C 155.060 362.534,155.492 362.952,155.926 363.217 C 156.677 363.675,156.674 363.654,155.857 362.767 C 154.901 361.729,154.712 361.627,154.965 362.287 M156.890 363.750 C 156.890 363.846,157.689 364.722,158.665 365.698 C 159.640 366.674,160.292 367.198,160.113 366.863 C 159.773 366.230,156.890 363.444,156.890 363.750 M304.461 364.855 C 304.339 365.170,304.254 365.694,304.271 366.018 C 304.287 366.343,304.441 366.139,304.612 365.565 C 304.945 364.450,304.828 363.898,304.461 364.855 M332.919 366.961 C 332.882 367.739,332.771 368.772,332.671 369.258 L 332.489 370.141 332.869 369.271 C 333.078 368.792,333.190 367.758,333.117 366.974 L 332.986 365.548 332.919 366.961 M65.224 369.287 C 64.877 370.074,64.668 370.793,64.761 370.886 C 64.854 370.978,65.194 370.392,65.518 369.582 C 66.284 367.667,66.044 367.428,65.224 369.287 M162.642 370.404 C 162.880 370.937,163.193 371.374,163.339 371.375 C 163.485 371.377,163.604 371.592,163.604 371.853 C 163.604 372.115,163.962 372.632,164.399 373.002 C 165.194 373.674,165.194 373.674,164.576 372.940 C 164.236 372.536,163.957 372.059,163.956 371.880 C 163.955 371.701,163.562 371.078,163.082 370.495 L 162.210 369.435 162.642 370.404 M194.018 370.209 C 194.097 371.126,194.650 371.904,194.675 371.134 C 194.688 370.708,194.541 370.261,194.346 370.141 C 194.152 370.021,194.004 370.052,194.018 370.209 M95.209 371.990 C 94.124 373.645,92.150 377.427,92.295 377.572 C 92.372 377.648,92.942 376.723,93.564 375.516 C 94.185 374.309,95.029 372.805,95.438 372.173 C 95.848 371.542,96.106 371.025,96.012 371.025 C 95.918 371.025,95.556 371.459,95.209 371.990 M332.128 372.173 C 332.022 372.932,332.076 373.365,332.254 373.188 C 332.425 373.017,332.507 372.421,332.438 371.863 C 332.321 370.929,332.296 370.953,332.128 372.173 M165.018 374.279 C 165.018 374.580,165.282 375.043,165.606 375.310 C 166.143 375.754,166.154 375.720,165.734 374.912 C 165.119 373.727,165.018 373.638,165.018 374.279 M299.388 377.650 C 299.259 377.990,298.866 378.577,298.516 378.954 C 298.166 379.330,297.880 379.788,297.880 379.971 C 297.880 380.155,297.355 381.039,296.713 381.937 C 295.265 383.963,294.966 384.452,295.177 384.452 C 295.403 384.452,299.449 378.424,299.743 377.650 C 299.872 377.310,299.898 377.032,299.801 377.032 C 299.704 377.032,299.518 377.310,299.388 377.650 M62.064 380.286 C 61.945 380.731,61.861 381.413,61.878 381.802 C 61.895 382.191,62.054 381.889,62.232 381.130 C 62.576 379.662,62.429 378.923,62.064 380.286 M339.223 381.390 C 339.223 381.446,339.695 381.842,340.273 382.269 C 340.891 382.726,341.246 382.846,341.137 382.560 C 340.981 382.153,339.223 381.078,339.223 381.390 M90.500 382.038 C 90.478 382.362,90.368 382.919,90.256 383.275 C 90.063 383.888,90.074 383.889,90.456 383.293 C 90.679 382.947,90.789 382.390,90.701 382.056 C 90.557 381.509,90.537 381.507,90.500 382.038 M343.000 384.238 C 343.815 384.949,345.365 386.508,346.445 387.702 C 347.526 388.896,348.410 389.718,348.410 389.528 C 348.410 389.102,343.078 383.770,342.174 383.291 C 341.814 383.100,342.186 383.526,343.000 384.238 M61.275 384.586 C 61.172 384.853,61.141 385.847,61.205 386.794 L 61.321 388.516 61.491 386.307 C 61.663 384.075,61.615 383.699,61.275 384.586 M89.806 385.042 C 89.776 385.463,89.650 386.099,89.524 386.455 C 89.348 386.953,89.395 387.010,89.728 386.704 C 89.966 386.485,90.093 385.849,90.010 385.290 C 89.903 384.575,89.843 384.502,89.806 385.042 M169.263 385.895 C 169.266 386.365,169.425 386.988,169.616 387.279 C 169.861 387.652,169.896 387.443,169.737 386.572 C 169.457 385.048,169.256 384.761,169.263 385.895 M293.463 386.490 C 293.269 386.632,292.876 387.067,292.590 387.456 C 292.207 387.978,292.322 387.938,293.032 387.306 C 293.897 386.535,294.160 386.209,293.905 386.224 C 293.856 386.227,293.657 386.347,293.463 386.490 M89.134 471.777 C 89.061 541.255,88.964 556.166,88.578 556.486 C 87.846 557.093,61.818 557.074,61.432 556.465 C 61.272 556.213,61.139 556.174,61.136 556.378 C 61.133 556.582,61.282 556.900,61.466 557.085 C 61.941 557.560,88.541 557.184,89.029 556.695 C 89.287 556.437,89.373 530.540,89.311 471.890 L 89.221 387.456 89.134 471.777 M288.693 391.636 C 286.846 393.441,285.107 395.226,284.828 395.603 C 284.549 395.981,286.099 394.543,288.273 392.409 C 291.895 388.853,292.399 388.324,292.138 388.347 C 292.089 388.352,290.539 389.832,288.693 391.636 M170.051 447.748 C 169.979 496.288,170.042 505.632,170.448 505.968 C 171.264 506.646,197.954 506.343,198.142 505.654 C 198.251 505.257,198.208 505.236,197.972 505.570 C 197.725 505.918,194.692 505.995,184.075 505.923 L 170.495 505.830 170.316 447.880 L 170.138 389.929 170.051 447.748 M351.874 395.584 C 352.371 396.647,352.831 397.464,352.895 397.399 C 353.068 397.227,351.620 394.053,351.270 393.837 C 351.105 393.735,351.377 394.521,351.874 395.584 M283.054 396.981 C 282.605 397.458,282.140 397.821,282.020 397.788 C 281.798 397.726,278.445 401.049,278.445 401.331 C 278.445 401.526,283.134 397.380,283.739 396.651 C 284.457 395.786,283.944 396.033,283.054 396.981 M353.016 398.074 C 353.023 398.259,353.268 398.807,353.561 399.293 L 354.093 400.177 353.862 399.293 C 353.621 398.372,352.993 397.467,353.016 398.074 M225.330 400.353 C 225.445 401.228,225.597 402.010,225.668 402.091 C 225.933 402.398,225.731 400.145,225.432 399.470 C 225.224 398.998,225.189 399.292,225.330 400.353 M317.491 399.967 C 316.881 400.104,317.932 400.207,319.965 400.210 C 322.655 400.215,323.119 400.155,321.908 399.958 C 320.003 399.648,318.909 399.650,317.491 399.967 M314.664 400.939 C 313.378 401.615,311.510 403.334,310.502 404.770 C 310.092 405.353,310.623 404.933,311.681 403.835 C 312.739 402.738,314.121 401.581,314.753 401.264 C 315.384 400.948,315.901 400.613,315.901 400.521 C 315.901 400.294,315.874 400.303,314.664 400.939 M325.972 401.836 C 326.555 402.283,327.588 403.211,328.269 403.898 C 328.949 404.584,329.193 404.743,328.812 404.251 C 327.907 403.084,326.505 401.822,325.618 401.376 C 325.230 401.181,325.389 401.388,325.972 401.836 M276.148 403.047 L 274.382 404.665 276.237 403.183 C 277.843 401.900,278.352 401.392,278.004 401.421 C 277.955 401.425,277.120 402.156,276.148 403.047 M225.855 403.180 C 225.873 404.098,226.429 405.606,226.442 404.770 C 226.447 404.382,226.315 403.746,226.148 403.357 C 225.962 402.924,225.849 402.855,225.855 403.180 M273.495 404.859 C 273.494 405.004,272.626 405.680,271.566 406.360 C 270.507 407.041,269.633 407.727,269.626 407.885 C 269.611 408.186,273.759 405.383,274.068 404.882 C 274.166 404.724,274.078 404.594,273.872 404.594 C 273.667 404.594,273.497 404.713,273.495 404.859 M226.502 406.163 C 226.502 406.733,227.002 407.156,227.312 406.846 C 227.587 406.571,227.207 405.654,226.817 405.654 C 226.644 405.654,226.502 405.883,226.502 406.163 M329.696 406.272 C 329.688 406.709,329.841 407.067,330.035 407.067 C 330.230 407.067,330.389 407.544,330.389 408.127 C 330.389 408.710,330.551 409.187,330.749 409.187 C 331.172 409.187,330.862 407.656,330.177 406.360 C 329.718 405.491,329.710 405.490,329.696 406.272 M355.549 411.131 C 355.504 413.463,355.379 415.769,355.271 416.254 C 355.106 416.996,355.137 417.041,355.463 416.532 C 355.710 416.147,355.811 414.275,355.741 411.408 L 355.631 406.890 355.549 411.131 M308.882 408.010 C 308.856 408.431,308.742 409.067,308.631 409.423 C 308.438 410.036,308.449 410.037,308.830 409.442 C 309.052 409.096,309.165 408.460,309.082 408.029 C 308.930 407.245,308.930 407.245,308.882 408.010 M267.026 409.559 C 265.896 410.326,264.823 410.954,264.641 410.954 C 264.460 410.954,264.311 411.122,264.311 411.328 C 264.311 411.538,264.506 411.582,264.753 411.430 C 267.501 409.732,269.815 408.011,269.170 408.146 C 269.121 408.156,268.157 408.792,267.026 409.559 M227.928 409.364 C 227.933 409.558,228.329 410.353,228.808 411.131 C 229.287 411.908,229.674 412.385,229.669 412.191 C 229.664 411.996,229.268 411.201,228.789 410.424 C 228.311 409.647,227.923 409.170,227.928 409.364 M198.239 410.630 C 198.242 411.100,198.400 411.723,198.591 412.014 C 198.836 412.387,198.872 412.178,198.712 411.307 C 198.432 409.783,198.231 409.496,198.239 410.630 M330.624 414.016 C 330.495 414.146,330.399 414.583,330.411 414.988 C 330.432 415.665,330.461 415.656,330.772 414.878 C 331.118 414.013,331.046 413.594,330.624 414.016 M230.852 414.379 C 231.149 414.860,233.922 417.098,233.922 416.857 C 233.922 416.767,233.174 416.080,232.260 415.331 C 231.346 414.582,230.712 414.154,230.852 414.379 M329.563 416.636 C 329.217 417.040,328.983 417.581,329.043 417.839 C 329.103 418.096,329.427 417.766,329.763 417.104 C 330.471 415.710,330.433 415.620,329.563 416.636 M252.764 417.076 C 250.958 417.743,250.963 418.072,252.770 417.456 C 253.676 417.147,254.417 416.830,254.417 416.751 C 254.417 416.536,254.008 416.617,252.764 417.076 M310.207 417.580 C 310.618 418.333,313.428 421.091,313.428 420.742 C 313.428 420.605,312.792 419.918,312.014 419.216 C 311.237 418.514,310.601 417.719,310.601 417.450 C 310.601 417.181,310.436 416.961,310.235 416.961 C 309.993 416.961,309.984 417.171,310.207 417.580 M248.578 418.389 C 248.429 418.630,248.695 418.673,249.352 418.516 C 250.706 418.190,250.834 418.021,249.726 418.021 C 249.220 418.021,248.703 418.187,248.578 418.389 M240.557 418.987 C 241.388 419.062,242.660 419.061,243.384 418.985 C 244.108 418.909,243.428 418.848,241.873 418.849 C 240.318 418.850,239.726 418.912,240.557 418.987 M245.671 418.971 C 246.011 419.060,246.568 419.060,246.908 418.971 C 247.248 418.883,246.970 418.810,246.290 418.810 C 245.610 418.810,245.331 418.883,245.671 418.971 M317.047 422.465 C 317.302 422.720,322.640 422.707,322.897 422.451 C 323.001 422.347,321.681 422.261,319.965 422.261 C 318.248 422.261,316.935 422.353,317.047 422.465 M203.180 424.200 C 203.180 424.354,203.657 425.255,204.240 426.203 C 204.823 427.151,205.300 428.082,205.300 428.274 C 205.300 428.465,205.420 428.622,205.565 428.623 C 205.711 428.623,206.265 429.312,206.797 430.153 C 207.329 430.995,208.114 431.988,208.542 432.361 C 209.026 432.783,208.902 432.505,208.216 431.625 C 207.609 430.848,206.227 428.796,205.146 427.066 C 204.065 425.336,203.180 424.046,203.180 424.200 M286.437 430.208 C 285.487 430.865,284.533 431.598,284.316 431.836 C 284.100 432.075,284.424 431.926,285.037 431.506 C 285.650 431.086,286.326 430.742,286.539 430.742 C 286.752 430.742,286.926 430.621,286.926 430.474 C 286.926 429.795,288.386 429.282,288.985 429.750 C 289.515 430.164,289.526 430.148,289.091 429.594 C 288.468 428.800,288.474 428.798,286.437 430.208 M347.586 433.664 C 346.016 435.688,345.990 435.752,347.262 434.452 C 348.433 433.256,349.731 431.432,349.394 431.456 C 349.339 431.460,348.525 432.454,347.586 433.664 M282.420 432.903 C 281.216 433.674,280.826 434.192,281.890 433.607 C 282.701 433.162,283.971 432.179,283.746 432.173 C 283.648 432.170,283.052 432.498,282.420 432.903 M291.164 433.235 C 291.387 433.731,291.916 434.348,292.340 434.606 C 293.046 435.036,293.037 434.991,292.231 434.057 C 291.748 433.497,291.220 432.880,291.056 432.686 C 290.892 432.491,290.941 432.738,291.164 433.235 M210.954 435.159 C 212.010 436.228,212.953 437.102,213.050 437.102 C 213.147 437.102,212.363 436.228,211.307 435.159 C 210.252 434.090,209.309 433.216,209.211 433.216 C 209.114 433.216,209.898 434.090,210.954 435.159 M279.147 434.999 C 278.664 435.370,278.153 435.677,278.012 435.681 C 277.871 435.686,277.235 436.009,276.599 436.399 L 275.442 437.110 276.678 436.874 C 277.359 436.744,278.244 436.288,278.646 435.861 C 279.048 435.433,279.605 435.003,279.883 434.905 C 280.161 434.806,280.307 434.635,280.207 434.525 C 280.107 434.414,279.630 434.628,279.147 434.999 M294.700 437.248 C 295.834 438.467,297.880 440.145,297.880 439.855 C 297.880 439.788,296.886 438.875,295.671 437.826 C 294.123 436.489,293.833 436.316,294.700 437.248 M274.117 437.658 C 272.796 438.375,272.876 438.673,274.205 437.986 C 274.788 437.684,275.265 437.362,275.265 437.270 C 275.265 437.043,275.227 437.056,274.117 437.658 M342.226 439.113 C 341.254 440.007,340.936 440.420,341.519 440.031 C 342.102 439.642,342.800 439.401,343.070 439.496 C 343.383 439.605,343.466 439.514,343.301 439.246 C 343.158 439.014,343.319 438.517,343.660 438.140 C 344.709 436.981,344.079 437.408,342.226 439.113 M217.002 440.014 C 219.048 441.782,219.576 442.139,220.551 442.419 C 221.170 442.596,221.488 442.581,221.364 442.380 C 221.252 442.198,220.990 442.049,220.783 442.049 C 220.576 442.049,219.433 441.412,218.242 440.632 C 217.052 439.853,216.494 439.575,217.002 440.014 M298.773 440.759 C 300.459 441.909,301.413 442.472,301.413 442.314 C 301.413 442.090,298.678 440.283,298.339 440.283 C 298.194 440.283,298.390 440.497,298.773 440.759 M263.781 442.403 C 263.100 442.696,263.102 442.707,263.848 442.731 C 264.274 442.745,264.721 442.597,264.841 442.403 C 265.099 441.985,264.754 441.985,263.781 442.403 M261.661 443.304 L 260.601 443.787 261.661 443.575 C 262.798 443.348,263.102 443.194,262.868 442.966 C 262.787 442.886,262.244 443.039,261.661 443.304 M303.180 443.434 C 303.666 443.830,304.289 444.157,304.564 444.162 C 305.207 444.172,305.046 444.039,303.534 443.310 L 302.297 442.714 303.180 443.434 M225.795 444.507 C 226.087 444.704,226.630 444.868,227.002 444.871 C 227.906 444.878,227.624 444.676,226.325 444.385 C 225.551 444.212,225.408 444.245,225.795 444.507 M257.951 444.523 C 257.223 444.756,257.192 444.811,257.774 444.836 C 258.163 444.852,258.719 444.711,259.011 444.523 C 259.630 444.123,259.200 444.123,257.951 444.523 M255.654 445.230 C 254.972 445.522,254.975 445.534,255.721 445.558 C 256.147 445.572,256.594 445.424,256.714 445.230 C 256.972 444.812,256.626 444.812,255.654 445.230 M307.244 445.230 C 307.364 445.424,307.811 445.572,308.236 445.558 C 308.983 445.534,308.985 445.522,308.304 445.230 C 307.331 444.812,306.986 444.812,307.244 445.230 M252.827 445.936 C 251.849 446.185,251.835 446.209,252.650 446.243 C 253.136 446.263,253.772 446.125,254.064 445.936 C 254.665 445.548,254.354 445.548,252.827 445.936 M309.367 445.942 C 309.486 446.133,310.076 446.290,310.680 446.290 C 312.015 446.290,311.880 446.113,310.318 445.816 C 309.590 445.677,309.233 445.724,309.367 445.942 M328.799 445.936 C 328.117 446.229,328.120 446.241,328.866 446.265 C 329.292 446.279,329.739 446.131,329.859 445.936 C 330.117 445.518,329.771 445.518,328.799 445.936 M232.244 446.180 C 232.584 446.269,233.140 446.269,233.481 446.180 C 233.821 446.091,233.542 446.018,232.862 446.018 C 232.182 446.018,231.904 446.091,232.244 446.180 M235.159 446.634 C 235.834 446.933,238.087 447.135,237.780 446.869 C 237.699 446.799,236.917 446.647,236.042 446.531 C 234.981 446.391,234.687 446.425,235.159 446.634 M249.647 446.643 C 248.669 446.892,248.655 446.916,249.470 446.949 C 249.956 446.969,250.592 446.832,250.883 446.643 C 251.485 446.254,251.174 446.254,249.647 446.643 M312.739 446.662 C 313.211 446.961,315.850 447.157,315.518 446.868 C 315.437 446.798,314.664 446.650,313.799 446.539 C 312.782 446.409,312.408 446.453,312.739 446.662 M325.088 446.643 L 323.852 446.903 325.088 446.925 C 325.769 446.937,326.643 446.810,327.032 446.643 L 327.739 446.339 327.032 446.361 C 326.643 446.373,325.769 446.500,325.088 446.643 " stroke="none" fill="#ed962d" fill-rule="evenodd"></path></g></svg>